<svg width="14" height="20" viewBox="0 0 14 20" fill="none" xmlns="http://www.w3.org/2000/svg">
<g id="bookmark 1" clip-path="url(#clip0_1_192)">
<g id="Group">
<path id="Vector" d="M1.85042 19.9628C2.31034 19.9628 2.58255 19.7022 3.42731 18.8925L7.09734 15.3095C7.14427 15.2629 7.22875 15.2629 7.26629 15.3095L10.9363 18.8925C11.7811 19.7022 12.0533 19.9628 12.5132 19.9628C13.1421 19.9628 13.5082 19.5533 13.5082 18.8274V2.67101C13.5082 0.902747 12.6164 0 10.8519 0H3.51178C1.74716 0 0.855469 0.902747 0.855469 2.67101V18.8274C0.855469 19.5533 1.22153 19.9628 1.85042 19.9628ZM2.62009 17.45C2.48868 17.5803 2.3385 17.5431 2.3385 17.3569V2.68963C2.3385 1.88925 2.76088 1.47045 3.58688 1.47045H10.7861C11.6027 1.47045 12.0251 1.88925 12.0251 2.68963V17.3569C12.0251 17.5431 11.8843 17.5803 11.7435 17.45L7.67929 13.5412C7.37893 13.2526 6.9847 13.2526 6.68434 13.5412L2.62009 17.45Z" fill="#20201F"/>
</g>
</g>
<defs>
<clipPath id="clip0_1_192">
<rect width="13" height="20" fill="white" transform="translate(0.855469)"/>
</clipPath>
</defs>
</svg>
