<svg width="386" height="79" viewBox="0 0 386 79" fill="none" xmlns="http://www.w3.org/2000/svg">
<path d="M8.29102 77V65.1348H29.9648C34.5352 65.1348 38.0332 64.2207 40.459 62.3926C42.8848 60.5293 44.0977 57.8398 44.0977 54.3242V54.2188C44.0977 51.8984 43.5352 49.9473 42.4102 48.3652C41.2852 46.748 39.6152 45.5352 37.4004 44.7266C35.2207 43.918 32.5137 43.5137 29.2793 43.5137H8.29102V32.7031H27.3809C31.8809 32.7031 35.291 31.8066 37.6113 30.0137C39.9668 28.1855 41.1445 25.6367 41.1445 22.3672V22.2617C41.1445 19.2383 40.1074 16.9004 38.0332 15.248C35.959 13.5605 33.0586 12.7168 29.332 12.7168H8.29102V0.904297H33.4453C38.2617 0.904297 42.4102 1.67773 45.8906 3.22461C49.3711 4.77148 52.0605 6.98633 53.959 9.86914C55.8574 12.7168 56.8066 16.0918 56.8066 19.9941V20.0996C56.8066 22.877 56.1563 25.4609 54.8555 27.8516C53.5898 30.207 51.8496 32.1758 49.6348 33.7578C47.4199 35.3047 44.9062 36.2715 42.0938 36.6582V36.9746C45.6445 37.2207 48.791 38.1699 51.5332 39.8223C54.2754 41.4395 56.4199 43.584 57.9668 46.2559C59.5488 48.8926 60.3398 51.8809 60.3398 55.2207V55.3262C60.3398 59.7559 59.2676 63.5879 57.123 66.8223C55.0137 70.0566 51.9902 72.5703 48.0527 74.3633C44.1504 76.1211 39.4746 77 34.0254 77H8.29102ZM0.328125 77V0.904297H16.2539V77H0.328125ZM87.3398 78.1602C83.1914 78.1602 79.6582 77.3164 76.7402 75.6289C73.8574 73.9062 71.6426 71.4629 70.0957 68.2988C68.584 65.1348 67.8281 61.3555 67.8281 56.9609V20.4688H83.2266V53.7441C83.2266 57.4355 84.0879 60.3008 85.8105 62.3398C87.5684 64.3789 90.1699 65.3984 93.6152 65.3984C95.3379 65.3984 96.8848 65.0996 98.2559 64.502C99.6621 63.9043 100.857 63.0605 101.842 61.9707C102.826 60.8457 103.582 59.5273 104.109 58.0156C104.637 56.4688 104.9 54.7812 104.9 52.9531V20.4688H120.299V77H104.9V67.666H104.584C103.6 69.8105 102.299 71.6738 100.682 73.2559C99.0996 74.8379 97.1836 76.0508 94.9336 76.8945C92.7188 77.7383 90.1875 78.1602 87.3398 78.1602ZM129.264 77V68.2461L157.688 32.334V32.0703H129.686V20.4688H175.301V30.2246L148.564 65.082V65.3984H175.934V77H129.264ZM183.896 77V68.2461L212.32 32.334V32.0703H184.318V20.4688H229.934V30.2246L203.197 65.082V65.3984H230.566V77H183.896ZM264.264 78.1602C258.498 78.1602 253.541 76.9824 249.393 74.627C245.244 72.2363 242.045 68.8438 239.795 64.4492C237.58 60.0547 236.473 54.8516 236.473 48.8398V48.7871C236.473 42.7754 237.58 37.5723 239.795 33.1777C242.045 28.748 245.191 25.3379 249.234 22.9473C253.312 20.5215 258.111 19.3086 263.631 19.3086C269.15 19.3086 273.914 20.4863 277.922 22.8418C281.965 25.1621 285.076 28.4492 287.256 32.7031C289.471 36.957 290.578 41.9316 290.578 47.627V52.373H244.014V42.6699H283.301L275.971 51.7402V45.834C275.971 42.5293 275.461 39.7695 274.441 37.5547C273.422 35.3047 271.998 33.6172 270.17 32.4922C268.377 31.3672 266.285 30.8047 263.895 30.8047C261.504 30.8047 259.377 31.3848 257.514 32.5449C255.686 33.7051 254.244 35.4102 253.189 37.6602C252.17 39.875 251.66 42.5996 251.66 45.834V51.793C251.66 54.9219 252.17 57.5938 253.189 59.8086C254.244 62.0234 255.738 63.7285 257.672 64.9238C259.605 66.084 261.908 66.6641 264.58 66.6641C266.689 66.6641 268.518 66.3301 270.064 65.6621C271.611 64.9941 272.877 64.1504 273.861 63.1309C274.846 62.1113 275.514 61.0742 275.865 60.0195L275.971 59.7031H290.104L289.945 60.2832C289.523 62.3574 288.697 64.4492 287.467 66.5586C286.236 68.668 284.566 70.6016 282.457 72.3594C280.383 74.1172 277.834 75.5234 274.811 76.5781C271.822 77.6328 268.307 78.1602 264.264 78.1602ZM298.541 77V20.4688H313.939V30.3301H314.256C315.1 26.8496 316.629 24.1426 318.844 22.209C321.059 20.2754 323.818 19.3086 327.123 19.3086C327.967 19.3086 328.775 19.3613 329.549 19.4668C330.322 19.5723 330.99 19.7129 331.553 19.8887V33.4414C330.92 33.1953 330.111 33.002 329.127 32.8613C328.143 32.6855 327.088 32.5977 325.963 32.5977C323.432 32.5977 321.27 33.0898 319.477 34.0742C317.684 35.0586 316.312 36.5 315.363 38.3984C314.414 40.2969 313.939 42.6172 313.939 45.3594V77H298.541ZM361.137 78.1602C355.934 78.1602 351.504 77.4043 347.848 75.8926C344.191 74.3809 341.326 72.2891 339.252 69.6172C337.213 66.9102 335.982 63.7812 335.561 60.2305L335.508 59.7559H350.537L350.643 60.2305C351.135 62.4453 352.242 64.168 353.965 65.3984C355.688 66.6289 358.078 67.2441 361.137 67.2441C363.105 67.2441 364.775 67.0156 366.146 66.5586C367.518 66.0664 368.572 65.3809 369.311 64.502C370.084 63.623 370.471 62.5684 370.471 61.3379V61.2852C370.471 59.7734 369.926 58.5605 368.836 57.6465C367.746 56.7324 365.812 55.959 363.035 55.3262L353.438 53.3223C349.781 52.5488 346.723 51.4414 344.262 50C341.836 48.5234 340.008 46.7129 338.777 44.5684C337.547 42.3887 336.932 39.8926 336.932 37.0801V37.0273C336.932 33.4062 337.898 30.2773 339.832 27.6406C341.766 25.0039 344.508 22.9648 348.059 21.5234C351.645 20.0469 355.828 19.3086 360.609 19.3086C365.602 19.3086 369.838 20.1172 373.318 21.7344C376.834 23.3164 379.523 25.4609 381.387 28.168C383.285 30.875 384.287 33.8809 384.393 37.1855V37.7129H370.207L370.154 37.291C369.908 35.252 368.959 33.5645 367.307 32.2285C365.689 30.8574 363.457 30.1719 360.609 30.1719C358.852 30.1719 357.322 30.418 356.021 30.9102C354.721 31.4023 353.719 32.1055 353.016 33.0195C352.312 33.8984 351.961 34.9531 351.961 36.1836V36.2363C351.961 37.1855 352.189 38.0469 352.646 38.8203C353.139 39.5586 353.947 40.209 355.072 40.7715C356.197 41.334 357.709 41.8262 359.607 42.248L369.205 44.3047C375.146 45.5352 379.4 47.3809 381.967 49.8418C384.568 52.3027 385.869 55.6074 385.869 59.7559V59.8086C385.869 63.5 384.814 66.7168 382.705 69.459C380.596 72.2012 377.678 74.3457 373.951 75.8926C370.26 77.4043 365.988 78.1602 361.137 78.1602Z" fill="#242423"/>
</svg>
