<svg width="32" height="24" viewBox="0 0 32 24" fill="none" xmlns="http://www.w3.org/2000/svg">
<g id="cart.badge.plus 1" clip-path="url(#clip0_1_176)">
<g id="Group">
<path id="Vector" d="M14.5215 20.5078C14.5215 21.3965 13.8184 22.0898 12.9395 22.0898C12.0508 22.0898 11.3477 21.3965 11.3477 20.5078C11.3477 19.6289 12.0508 18.9258 12.9395 18.9258C13.8184 18.9258 14.5215 19.6289 14.5215 20.5078ZM23.6621 20.5078C23.6621 21.3965 22.959 22.0898 22.0703 22.0898C21.1914 22.0898 20.4785 21.3965 20.4785 20.5078C20.4785 19.6289 21.1914 18.9258 22.0703 18.9258C22.959 18.9258 23.6621 19.6289 23.6621 20.5078ZM9.74609 4.02344L9.92884 5.26367H19.3602C19.2968 5.59618 19.2676 5.93952 19.2676 6.28907C19.2676 6.44067 19.273 6.59105 19.2904 6.73828H10.1461L10.9807 12.4023H23.4375C23.5799 12.4023 23.7067 12.3791 23.8181 12.3348C24.3723 12.5011 24.9596 12.5879 25.5664 12.5879C25.6013 12.5879 25.6362 12.5876 25.67 12.5825C25.3067 13.3914 24.633 13.8672 23.584 13.8672H11.1966L11.3477 14.8926C11.4355 15.4883 11.7773 15.8789 12.334 15.8789H23.5645C23.9453 15.8789 24.2773 16.1914 24.2773 16.6113C24.2773 17.0312 23.9453 17.3438 23.5645 17.3438H12.168C10.752 17.3438 10.0195 16.4746 9.81445 15.0879L8.25195 4.36524H4.95117C4.56055 4.36524 4.22852 4.02345 4.22852 3.62305C4.22852 3.23242 4.56055 2.89062 4.95117 2.89062H8.37891C9.375 2.89062 9.64844 3.27148 9.74609 4.02344Z" fill="#20201F"/>
<path id="Vector_2" d="M30.5273 6.28907C30.5273 9.00392 28.252 11.25 25.5664 11.25C22.8418 11.25 20.6055 9.02345 20.6055 6.28907C20.6055 3.57423 22.8418 1.32812 25.5664 1.32812C28.2812 1.32812 30.5273 3.57423 30.5273 6.28907ZM24.9609 3.78907V5.69337H23.0566C22.6953 5.69337 22.4609 5.92774 22.4609 6.28907C22.4609 6.66017 22.6953 6.89454 23.0566 6.89454H24.9609V8.79883C24.9609 9.16016 25.2051 9.4043 25.5664 9.4043C25.9277 9.4043 26.1621 9.16016 26.1621 8.79883V6.89454H28.0664C28.4277 6.89454 28.6719 6.66017 28.6719 6.28907C28.6719 5.92774 28.4277 5.69337 28.0664 5.69337H26.1621V3.78907C26.1621 3.42774 25.9277 3.18359 25.5664 3.18359C25.2051 3.18359 24.9609 3.42774 24.9609 3.78907Z" fill="#20201F"/>
</g>
</g>
<defs>
<clipPath id="clip0_1_176">
<rect width="31.8555" height="23.6035" fill="white"/>
</clipPath>
</defs>
</svg>
