<svg width="97" height="96" viewBox="0 0 97 96" fill="none" xmlns="http://www.w3.org/2000/svg">
<g clip-path="url(#clip0_606_2149)">
<path d="M83.6351 0H57.5978L44.5778 22.5502L57.5978 45.1031H83.6351L96.6579 22.5502L83.6351 0ZM82.7715 20.1676L77.2943 10.6998H66.6839V5.37966H80.3619L87.3795 17.5008L82.7742 20.1676H82.7715Z" fill="#FCD13B"/>
<path d="M39.0574 25.1601H13.02L0 47.713L13.02 70.2632H39.0574L52.0774 47.713L39.0574 25.1601ZM38.1937 45.3305L32.7139 35.8653H22.1034V30.5452H35.7841L42.8017 42.6637L38.1964 45.3305H38.1937Z" fill="#FCD13B"/>
<path d="M83.6351 50.8997H57.5978L44.5778 73.4498L57.5978 96H83.6351L96.6579 73.4498L83.6351 50.8997ZM82.7715 71.0673L77.2943 61.5994H66.6839V56.2793H80.3619L87.3795 68.4005L82.7742 71.0673H82.7715Z" fill="#FCD13B"/>
</g>
<defs>
<clipPath id="clip0_606_2149">
<rect width="96.6579" height="96" fill="white"/>
</clipPath>
</defs>
</svg>
