<svg width="25" height="19" viewBox="0 0 25 19" fill="none" xmlns="http://www.w3.org/2000/svg">
<g id="puzzlepiece.extension 1" clip-path="url(#clip0_1_801)">
<g id="Group">
<path id="Vector" d="M0.380859 15.9375C0.380859 17.8711 1.40625 18.877 3.36914 18.877H15.3711C17.3242 18.877 18.3496 17.8711 18.3496 15.9375V12.4902C18.3496 12.334 18.457 12.2559 18.6426 12.3828C19.2578 12.8223 19.9707 13.1348 20.791 13.1348C22.6367 13.1348 24.2871 11.6504 24.2871 9.47266C24.2871 7.30469 22.6367 5.82031 20.791 5.82031C19.9707 5.82031 19.2578 6.13281 18.6426 6.57227C18.457 6.69922 18.3496 6.62109 18.3496 6.46484V2.93945C18.3496 1.00586 17.3242 0 15.3711 0H3.36914C1.40625 0 0.380859 1.00586 0.380859 2.93945V7.25586C0.380859 8.07617 0.917969 8.56445 1.5918 8.56445C1.96289 8.56445 2.34375 8.4082 2.72461 8.05664C3.20312 7.62695 3.74023 7.36328 4.31641 7.36328C5.42969 7.36328 6.36719 8.19336 6.36719 9.45312C6.36719 10.7129 5.42969 11.543 4.31641 11.543C3.74023 11.543 3.20312 11.2695 2.72461 10.8398C2.34375 10.498 1.96289 10.3418 1.5918 10.3418C0.917969 10.3418 0.380859 10.8301 0.380859 11.6406V15.9375ZM1.95312 15.8594V12.6074C1.95312 12.1484 2.1875 12.3242 2.37305 12.4414C2.96875 12.8223 3.62305 13.1055 4.39453 13.1055C6.23047 13.1055 7.89062 11.6309 7.89062 9.45312C7.89062 7.27539 6.23047 5.80078 4.39453 5.80078C3.62305 5.80078 2.96875 6.08398 2.37305 6.46484C2.1875 6.58203 1.95312 6.75781 1.95312 6.29883V3.01758C1.95312 2.08984 2.49023 1.57227 3.39844 1.57227H15.3418C16.25 1.57227 16.7773 2.08984 16.7773 3.01758V7.25586C16.7773 8.07617 17.3145 8.59375 17.9883 8.59375C18.3594 8.59375 18.7402 8.4375 19.1211 8.08594C19.5996 7.65625 20.1367 7.38281 20.7129 7.38281C21.8262 7.38281 22.7637 8.21289 22.7637 9.47266C22.7637 10.7422 21.8262 11.5723 20.7129 11.5723C20.1367 11.5723 19.5996 11.2988 19.1211 10.8691C18.7402 10.5176 18.3594 10.3613 17.9883 10.3613C17.3145 10.3613 16.7773 10.8789 16.7773 11.6992V15.8594C16.7773 16.7969 16.25 17.3047 15.3418 17.3047H3.39844C2.49023 17.3047 1.95312 16.7969 1.95312 15.8594Z" fill="#20201F" fill-opacity="0.5"/>
</g>
</g>
<defs>
<clipPath id="clip0_1_801">
<rect width="24.2871" height="18.916" fill="white"/>
</clipPath>
</defs>
</svg>
