<svg width="37" height="25" viewBox="0 0 37 25" fill="none" xmlns="http://www.w3.org/2000/svg">
<g id="square.and.arrow.up 1" clip-path="url(#clip0_1_787)">
<g id="Group">
<path id="Vector" d="M15.6338 2.42877L27.0752 2.42877C29.4369 2.42877 30.6293 3.64567 30.6293 6.06784L30.6293 19.3609C30.6293 21.7831 29.4369 23 27.0752 23L15.6338 23C13.2721 23 12.0798 21.7831 12.0798 19.3609L12.0798 15.8725L13.9256 15.8725L13.9256 19.3377C13.9256 20.4967 14.5447 21.1341 15.7369 21.1341L26.9721 21.1341C28.1643 21.1341 28.7835 20.4967 28.7835 19.3377L28.7835 6.10261C28.7835 4.95526 28.1643 4.29471 26.9721 4.29471L15.7369 4.29471C14.5447 4.29471 13.9256 4.95526 13.9256 6.10261L13.9256 9.55631L12.0798 9.55631L12.0798 6.06784C12.0798 3.64567 13.2721 2.42877 15.6338 2.42877Z" fill="#20201F"/>
<path id="Vector_2" d="M21.6526 12.7202C21.6526 12.2219 21.2399 11.7931 20.7584 11.7931L8.98442 11.7931L7.26475 11.8626L8.07873 11.0861L9.93596 9.32455C10.1194 9.1622 10.2111 8.93043 10.2111 8.69866C10.2111 8.22348 9.86718 7.85262 9.39714 7.85262C9.15638 7.85262 8.97295 7.95693 8.80099 8.13079L5.06359 12.048C4.8343 12.2798 4.75405 12.4768 4.75405 12.7202C4.75405 12.952 4.8343 13.149 5.06359 13.3924L8.80099 17.3096C8.97295 17.4835 9.15638 17.5762 9.39714 17.5762C9.86718 17.5762 10.2111 17.2285 10.2111 16.7417C10.2111 16.5215 10.1194 16.2666 9.93596 16.1043L8.07873 14.3543L7.26475 13.5662L8.98442 13.6358L20.7584 13.6358C21.2399 13.6358 21.6526 13.2185 21.6526 12.7202Z" fill="#20201F"/>
</g>
</g>
<defs>
<clipPath id="clip0_1_787">
<rect width="25" height="37" fill="white" transform="translate(0 25) rotate(-90)"/>
</clipPath>
</defs>
</svg>
