<svg width="28" height="27" viewBox="0 0 28 27" fill="none" xmlns="http://www.w3.org/2000/svg">
<g id="person.crop.circle.fill 1" clip-path="url(#clip0_1_161)">
<g id="Group">
<path id="Vector" d="M27.2767 13.4934C27.2767 20.8619 21.0994 26.9869 13.6384 26.9869C6.19074 26.9869 0 20.8619 0 13.4934C0 6.11172 6.17737 0 13.625 0C21.086 0 27.2767 6.11172 27.2767 13.4934ZM5.41523 21.5762C7.46098 23.7325 10.563 24.976 13.625 24.976C16.7003 24.976 19.7889 23.7325 21.8481 21.5762C20.3907 19.3008 17.2217 18.0044 13.625 18.0044C10.0015 18.0044 6.8593 19.3274 5.41523 21.5762ZM9.03875 10.7683C9.03875 13.6124 11.0578 15.729 13.625 15.7556C16.2055 15.782 18.2112 13.6124 18.2112 10.7683C18.2112 8.09604 16.1922 5.87361 13.625 5.87361C11.0711 5.87361 9.02539 8.09604 9.03875 10.7683Z" fill="#20201F"/>
</g>
</g>
<defs>
<clipPath id="clip0_1_161">
<rect width="27.7714" height="27" fill="white"/>
</clipPath>
</defs>
</svg>
