<svg width="904" height="644" viewBox="0 0 904 644" fill="none" xmlns="http://www.w3.org/2000/svg">
<path d="M583.786 426.214L585.929 428.357C586.14 428.568 586.39 428.735 586.666 428.85C586.942 428.964 587.237 429.023 587.536 429.023C587.834 429.023 588.13 428.964 588.405 428.85C588.681 428.735 588.932 428.568 589.143 428.357C589.354 428.146 589.521 427.895 589.635 427.62C589.75 427.344 589.808 427.048 589.808 426.75C589.808 426.451 589.75 426.156 589.635 425.88C589.521 425.604 589.354 425.354 589.143 425.143" stroke="#20201F" stroke-width="2.41071" stroke-linecap="round" stroke-linejoin="round"/>
<path d="M587 423L589.678 425.678C590.105 426.105 590.683 426.344 591.286 426.344C591.888 426.344 592.466 426.105 592.893 425.678C593.319 425.252 593.558 424.674 593.558 424.071C593.558 423.469 593.319 422.89 592.893 422.464L588.736 418.307C588.133 417.705 587.316 417.367 586.464 417.367C585.612 417.367 584.795 417.705 584.193 418.307L583.25 419.25C582.824 419.676 582.246 419.916 581.643 419.916C581.04 419.916 580.462 419.676 580.036 419.25C579.609 418.824 579.37 418.246 579.37 417.643C579.37 417.04 579.609 416.462 580.036 416.036L583.046 413.025C584.024 412.05 585.298 411.429 586.668 411.26C588.038 411.091 589.426 411.384 590.611 412.093L591.114 412.393C591.57 412.668 592.113 412.764 592.636 412.661L594.5 412.286" stroke="#20201F" stroke-width="2.41071" stroke-linecap="round" stroke-linejoin="round"/>
<path d="M594.5 411.214L595.571 423H593.428" stroke="#20201F" stroke-width="2.41071" stroke-linecap="round" stroke-linejoin="round"/>
<path d="M575.214 411.214L574.143 423L581.107 429.964C581.533 430.391 582.111 430.63 582.714 430.63C583.317 430.63 583.895 430.391 584.321 429.964C584.748 429.538 584.987 428.96 584.987 428.357C584.987 427.754 584.748 427.176 584.321 426.75" stroke="#20201F" stroke-width="2.41071" stroke-linecap="round" stroke-linejoin="round"/>
<path d="M575.214 412.286H583.786" stroke="#20201F" stroke-width="2.41071" stroke-linecap="round" stroke-linejoin="round"/>
<path d="M611.193 426L615.92 412.411H618.35V415.114H617.512L614.178 426H611.193ZM613.726 422.704L614.423 420.576H620.704L621.401 422.704H613.726ZM620.996 426L617.662 415.114V412.411H619.263L623.981 426H620.996ZM629.961 429.625C629.007 429.625 628.187 429.5 627.503 429.249C626.819 429.004 626.282 428.659 625.893 428.213C625.504 427.767 625.268 427.256 625.186 426.678L625.196 426.622H627.908L627.917 426.669C627.999 426.957 628.216 427.196 628.567 427.384C628.925 427.573 629.405 427.667 630.008 427.667C630.742 427.667 631.311 427.5 631.712 427.168C632.114 426.841 632.315 426.377 632.315 425.774V423.9H632.155C631.973 424.264 631.728 424.572 631.42 424.823C631.119 425.074 630.768 425.265 630.366 425.397C629.97 425.523 629.531 425.586 629.047 425.586C628.187 425.586 627.443 425.378 626.816 424.964C626.188 424.55 625.704 423.969 625.365 423.222C625.026 422.475 624.857 421.609 624.857 420.623V420.604C624.857 419.581 625.026 418.686 625.365 417.92C625.704 417.154 626.191 416.561 626.825 416.141C627.459 415.714 628.216 415.5 629.094 415.5C629.572 415.5 630.008 415.576 630.403 415.726C630.805 415.877 631.157 416.09 631.458 416.367C631.759 416.643 632.001 416.976 632.183 417.365H632.306V415.67H635.055V425.689C635.055 426.487 634.848 427.18 634.434 427.77C634.019 428.36 633.429 428.816 632.663 429.136C631.904 429.462 631.003 429.625 629.961 429.625ZM629.989 423.495C630.479 423.495 630.896 423.376 631.242 423.137C631.593 422.892 631.863 422.557 632.051 422.13C632.246 421.696 632.343 421.194 632.343 420.623V420.604C632.343 420.033 632.246 419.531 632.051 419.097C631.863 418.664 631.593 418.328 631.242 418.09C630.896 417.851 630.479 417.732 629.989 417.732C629.499 417.732 629.082 417.851 628.737 418.09C628.391 418.328 628.125 418.664 627.936 419.097C627.754 419.524 627.663 420.027 627.663 420.604V420.623C627.663 421.194 627.754 421.696 627.936 422.13C628.125 422.557 628.391 422.892 628.737 423.137C629.082 423.376 629.499 423.495 629.989 423.495ZM637.683 426V415.67H640.432V417.299H640.592C640.756 416.728 641.057 416.285 641.496 415.971C641.942 415.657 642.498 415.5 643.163 415.5C643.345 415.5 643.524 415.513 643.7 415.538C643.876 415.557 644.026 415.585 644.152 415.623V418.024C643.964 417.974 643.766 417.936 643.559 417.911C643.352 417.886 643.141 417.873 642.928 417.873C642.419 417.873 641.977 417.967 641.6 418.156C641.23 418.344 640.941 418.614 640.734 418.966C640.533 419.311 640.432 419.728 640.432 420.218V426H637.683ZM650.216 426.217C649.168 426.217 648.264 426 647.504 425.567C646.751 425.134 646.17 424.515 645.762 423.712C645.361 422.908 645.16 421.954 645.16 420.849V420.84C645.16 419.747 645.361 418.799 645.762 417.996C646.17 417.186 646.745 416.561 647.486 416.122C648.226 415.676 649.099 415.453 650.103 415.453C651.108 415.453 651.974 415.67 652.703 416.103C653.437 416.53 654.002 417.132 654.398 417.911C654.793 418.683 654.991 419.59 654.991 420.632V421.489H646.525V419.766H653.672L652.382 421.395V420.303C652.382 419.681 652.288 419.167 652.1 418.758C651.912 418.344 651.648 418.033 651.309 417.826C650.976 417.613 650.59 417.506 650.151 417.506C649.711 417.506 649.319 417.616 648.973 417.836C648.634 418.049 648.368 418.363 648.173 418.777C647.978 419.192 647.881 419.7 647.881 420.303V421.405C647.881 421.982 647.975 422.478 648.164 422.892C648.358 423.301 648.634 423.614 648.992 423.834C649.35 424.054 649.777 424.164 650.273 424.164C650.668 424.164 651.008 424.104 651.29 423.985C651.573 423.866 651.799 423.724 651.968 423.561C652.144 423.398 652.263 423.247 652.326 423.109L652.354 423.053H654.906L654.887 423.147C654.806 423.479 654.658 423.825 654.445 424.183C654.231 424.54 653.936 424.873 653.559 425.181C653.189 425.488 652.725 425.739 652.166 425.934C651.613 426.122 650.964 426.217 650.216 426.217ZM661.686 426.217C660.638 426.217 659.734 426 658.974 425.567C658.221 425.134 657.64 424.515 657.232 423.712C656.83 422.908 656.629 421.954 656.629 420.849V420.84C656.629 419.747 656.83 418.799 657.232 417.996C657.64 417.186 658.215 416.561 658.955 416.122C659.696 415.676 660.569 415.453 661.573 415.453C662.578 415.453 663.444 415.67 664.172 416.103C664.907 416.53 665.472 417.132 665.867 417.911C666.263 418.683 666.461 419.59 666.461 420.632V421.489H657.995V419.766H665.142L663.852 421.395V420.303C663.852 419.681 663.758 419.167 663.57 418.758C663.381 418.344 663.118 418.033 662.779 417.826C662.446 417.613 662.06 417.506 661.62 417.506C661.181 417.506 660.788 417.616 660.443 417.836C660.104 418.049 659.837 418.363 659.643 418.777C659.448 419.192 659.351 419.7 659.351 420.303V421.405C659.351 421.982 659.445 422.478 659.633 422.892C659.828 423.301 660.104 423.614 660.462 423.834C660.82 424.054 661.247 424.164 661.743 424.164C662.138 424.164 662.477 424.104 662.76 423.985C663.042 423.866 663.268 423.724 663.438 423.561C663.614 423.398 663.733 423.247 663.796 423.109L663.824 423.053H666.376L666.357 423.147C666.275 423.479 666.128 423.825 665.914 424.183C665.701 424.54 665.406 424.873 665.029 425.181C664.659 425.488 664.194 425.739 663.636 425.934C663.083 426.122 662.433 426.217 661.686 426.217ZM668.589 426V415.67H671.338V417.299H671.499C671.712 416.715 672.073 416.263 672.582 415.943C673.09 415.616 673.683 415.453 674.361 415.453C674.832 415.453 675.256 415.532 675.633 415.689C676.016 415.839 676.342 416.059 676.612 416.348C676.882 416.63 677.086 416.976 677.224 417.384H677.384C677.541 416.994 677.77 416.655 678.072 416.367C678.379 416.078 678.74 415.855 679.154 415.698C679.575 415.535 680.027 415.453 680.511 415.453C681.195 415.453 681.785 415.594 682.281 415.877C682.783 416.159 683.169 416.558 683.439 417.073C683.715 417.588 683.853 418.2 683.853 418.909V426H681.104V419.606C681.104 419.185 681.041 418.837 680.915 418.561C680.79 418.284 680.602 418.077 680.35 417.939C680.099 417.801 679.782 417.732 679.399 417.732C679.029 417.732 678.709 417.817 678.439 417.986C678.169 418.149 677.959 418.375 677.808 418.664C677.663 418.953 677.591 419.286 677.591 419.662V426H674.851V419.484C674.851 419.113 674.782 418.796 674.644 418.532C674.512 418.269 674.317 418.071 674.06 417.939C673.809 417.801 673.508 417.732 673.156 417.732C672.798 417.732 672.481 417.82 672.205 417.996C671.935 418.171 671.721 418.413 671.564 418.721C671.414 419.028 671.338 419.377 671.338 419.766V426H668.589ZM690.954 426.217C689.905 426.217 689.001 426 688.242 425.567C687.488 425.134 686.908 424.515 686.5 423.712C686.098 422.908 685.897 421.954 685.897 420.849V420.84C685.897 419.747 686.098 418.799 686.5 417.996C686.908 417.186 687.482 416.561 688.223 416.122C688.964 415.676 689.836 415.453 690.841 415.453C691.845 415.453 692.712 415.67 693.44 416.103C694.174 416.53 694.739 417.132 695.135 417.911C695.53 418.683 695.728 419.59 695.728 420.632V421.489H687.262V419.766H694.41L693.12 421.395V420.303C693.12 419.681 693.025 419.167 692.837 418.758C692.649 418.344 692.385 418.033 692.046 417.826C691.713 417.613 691.327 417.506 690.888 417.506C690.448 417.506 690.056 417.616 689.711 417.836C689.372 418.049 689.105 418.363 688.91 418.777C688.716 419.192 688.618 419.7 688.618 420.303V421.405C688.618 421.982 688.713 422.478 688.901 422.892C689.096 423.301 689.372 423.614 689.73 423.834C690.087 424.054 690.514 424.164 691.01 424.164C691.406 424.164 691.745 424.104 692.027 423.985C692.31 423.866 692.536 423.724 692.705 423.561C692.881 423.398 693 423.247 693.063 423.109L693.091 423.053H695.643L695.625 423.147C695.543 423.479 695.395 423.825 695.182 424.183C694.969 424.54 694.673 424.873 694.297 425.181C693.926 425.488 693.462 425.739 692.903 425.934C692.351 426.122 691.701 426.217 690.954 426.217ZM697.856 426V415.67H700.606V417.28H700.766C701.005 416.715 701.375 416.269 701.877 415.943C702.386 415.616 703.011 415.453 703.751 415.453C704.9 415.453 705.776 415.789 706.379 416.461C706.988 417.132 707.292 418.087 707.292 419.323V426H704.542V419.936C704.542 419.214 704.389 418.667 704.081 418.297C703.773 417.92 703.296 417.732 702.65 417.732C702.229 417.732 701.865 417.826 701.557 418.015C701.256 418.203 701.02 418.47 700.851 418.815C700.688 419.16 700.606 419.565 700.606 420.03V426H697.856ZM714.1 426.057C712.864 426.057 711.969 425.837 711.417 425.397C710.864 424.952 710.588 424.22 710.588 423.203V417.741H709.015V415.67H710.588V413.193H713.366V415.67H715.466V417.741H713.366V422.61C713.366 423.074 713.473 423.414 713.686 423.627C713.9 423.84 714.235 423.947 714.694 423.947C714.857 423.947 714.995 423.944 715.108 423.938C715.221 423.925 715.34 423.916 715.466 423.909V425.943C715.303 425.975 715.102 426 714.863 426.019C714.625 426.044 714.37 426.057 714.1 426.057Z" fill="#20201F"/>
<g filter="url(#filter0_d_855_194)">
<rect x="590.178" y="445.464" width="121.143" height="52.0357" rx="9.14286" stroke="#20201F" shape-rendering="crispEdges"/>
<path d="M616.496 478.982L610.651 463.129H612.727L617.418 476.532H617.517L622.219 463.129H624.296L618.451 478.982H616.496ZM626.12 478.982V467.392H628.031V478.982H626.12ZM627.075 465.315C626.739 465.315 626.446 465.194 626.197 464.953C625.955 464.704 625.834 464.411 625.834 464.074C625.834 463.722 625.955 463.426 626.197 463.184C626.446 462.942 626.739 462.821 627.075 462.821C627.427 462.821 627.724 462.942 627.965 463.184C628.207 463.426 628.328 463.722 628.328 464.074C628.328 464.411 628.207 464.704 627.965 464.953C627.724 465.194 627.427 465.315 627.075 465.315ZM635.788 479.202C634.682 479.202 633.729 478.957 632.931 478.466C632.14 477.975 631.529 477.283 631.096 476.389C630.672 475.496 630.459 474.441 630.459 473.225V473.214C630.459 472.021 630.675 470.969 631.107 470.061C631.54 469.153 632.144 468.446 632.92 467.941C633.704 467.428 634.619 467.172 635.667 467.172C636.721 467.172 637.63 467.417 638.391 467.908C639.153 468.391 639.735 469.073 640.138 469.951C640.548 470.823 640.753 471.837 640.753 472.995V473.72H631.437V472.204H639.798L638.842 473.599V472.852C638.842 471.951 638.703 471.208 638.424 470.622C638.153 470.028 637.78 469.589 637.304 469.303C636.828 469.018 636.278 468.875 635.656 468.875C635.041 468.875 634.488 469.025 633.997 469.325C633.506 469.625 633.118 470.072 632.832 470.666C632.547 471.259 632.404 471.988 632.404 472.852V473.599C632.404 474.419 632.543 475.122 632.821 475.708C633.1 476.287 633.495 476.73 634.008 477.038C634.528 477.345 635.136 477.499 635.832 477.499C636.337 477.499 636.784 477.426 637.172 477.279C637.56 477.133 637.882 476.939 638.139 476.697C638.395 476.448 638.574 476.181 638.677 475.895L638.721 475.796H640.611L640.589 475.895C640.493 476.334 640.31 476.756 640.039 477.158C639.776 477.554 639.435 477.906 639.018 478.213C638.607 478.521 638.128 478.762 637.578 478.938C637.036 479.114 636.439 479.202 635.788 479.202ZM645.368 478.982L642.127 467.392H644.027L646.334 476.752H646.433L649.037 467.392H650.872L653.487 476.752H653.585L655.882 467.392H657.782L654.541 478.982H652.608L649.993 470.006H649.905L647.301 478.982H645.368Z" fill="#20201F"/>
<path d="M681.678 477.911L688.107 471.482L681.678 465.053" stroke="#20201F" stroke-width="2" stroke-linecap="round" stroke-linejoin="round"/>
</g>
<g filter="url(#filter1_d_855_194)">
<rect x="722" y="579.8" width="175.582" height="52.2" rx="9.49091" fill="#E8EDDF" shape-rendering="crispEdges"/>
<path d="M764.9 599.573L753.3 611.173L748.027 605.9" stroke="#20201F" stroke-width="2.37273" stroke-linecap="round" stroke-linejoin="round"/>
<path d="M782.259 613.9L788.044 598.297H789.504V600.719H788.953L784.303 613.9H782.259ZM784.898 609.434L785.525 607.78H792.499L793.127 609.434H784.898ZM793.7 613.9L789.05 600.719V598.297H789.969L795.743 613.9H793.7ZM802.004 614.116C800.93 614.116 799.997 613.871 799.204 613.381C798.418 612.891 797.809 612.202 797.376 611.316C796.944 610.422 796.727 609.373 796.727 608.169V608.148C796.727 606.951 796.944 605.913 797.376 605.033C797.809 604.154 798.418 603.473 799.204 602.99C799.997 602.499 800.923 602.254 801.983 602.254C802.927 602.254 803.734 602.431 804.405 602.784C805.082 603.13 805.619 603.588 806.016 604.157C806.42 604.727 806.668 605.343 806.762 606.007L806.773 606.082H804.913L804.902 606.017C804.758 605.455 804.444 604.965 803.961 604.547C803.478 604.129 802.819 603.92 801.983 603.92C801.312 603.92 800.725 604.096 800.22 604.449C799.723 604.795 799.337 605.286 799.063 605.92C798.789 606.547 798.652 607.293 798.652 608.158V608.18C798.652 609.059 798.789 609.82 799.063 610.462C799.344 611.096 799.733 611.586 800.231 611.932C800.735 612.278 801.323 612.451 801.993 612.451C802.772 612.451 803.403 612.267 803.886 611.9C804.376 611.525 804.715 611.02 804.902 610.386L804.924 610.31L806.773 610.299L806.762 610.397C806.632 611.103 806.362 611.738 805.951 612.3C805.54 612.862 804.999 613.305 804.329 613.63C803.666 613.954 802.891 614.116 802.004 614.116ZM813.682 614.116C812.608 614.116 811.675 613.871 810.882 613.381C810.096 612.891 809.487 612.202 809.054 611.316C808.622 610.422 808.406 609.373 808.406 608.169V608.148C808.406 606.951 808.622 605.913 809.054 605.033C809.487 604.154 810.096 603.473 810.882 602.99C811.675 602.499 812.601 602.254 813.661 602.254C814.605 602.254 815.413 602.431 816.083 602.784C816.761 603.13 817.298 603.588 817.694 604.157C818.098 604.727 818.347 605.343 818.44 606.007L818.451 606.082H816.591L816.58 606.017C816.436 605.455 816.123 604.965 815.64 604.547C815.157 604.129 814.497 603.92 813.661 603.92C812.99 603.92 812.403 604.096 811.898 604.449C811.401 604.795 811.015 605.286 810.741 605.92C810.467 606.547 810.33 607.293 810.33 608.158V608.18C810.33 609.059 810.467 609.82 810.741 610.462C811.022 611.096 811.412 611.586 811.909 611.932C812.414 612.278 813.001 612.451 813.672 612.451C814.45 612.451 815.081 612.267 815.564 611.9C816.054 611.525 816.393 611.02 816.58 610.386L816.602 610.31L818.451 610.299L818.44 610.397C818.311 611.103 818.04 611.738 817.629 612.3C817.218 612.862 816.678 613.305 816.007 613.63C815.344 613.954 814.569 614.116 813.682 614.116ZM825.339 614.116C824.243 614.116 823.303 613.875 822.517 613.392C821.738 612.909 821.136 612.228 820.711 611.348C820.293 610.462 820.084 609.42 820.084 608.223V608.212C820.084 607.037 820.293 606.003 820.711 605.109C821.136 604.215 821.735 603.516 822.506 603.011C823.277 602.507 824.182 602.254 825.22 602.254C826.258 602.254 827.152 602.496 827.902 602.979C828.652 603.462 829.225 604.136 829.621 605.001C830.025 605.859 830.227 606.857 830.227 607.996V608.71H821.035V607.218H829.286L828.334 608.591V607.856C828.334 606.962 828.201 606.226 827.934 605.65C827.668 605.073 827.296 604.644 826.821 604.363C826.352 604.075 825.815 603.93 825.209 603.93C824.597 603.93 824.045 604.082 823.555 604.385C823.072 604.68 822.69 605.12 822.409 605.704C822.135 606.288 821.998 607.005 821.998 607.856V608.591C821.998 609.398 822.135 610.09 822.409 610.667C822.683 611.236 823.072 611.676 823.577 611.986C824.088 612.289 824.69 612.44 825.382 612.44C825.88 612.44 826.32 612.368 826.702 612.224C827.084 612.08 827.401 611.889 827.653 611.651C827.905 611.413 828.082 611.154 828.183 610.872L828.226 610.775H830.086L830.065 610.872C829.964 611.305 829.783 611.716 829.524 612.105C829.264 612.494 828.929 612.84 828.518 613.143C828.115 613.446 827.642 613.684 827.102 613.857C826.568 614.03 825.981 614.116 825.339 614.116ZM832.584 617.739V602.471H834.465V604.352H834.574C834.812 603.912 835.107 603.537 835.46 603.228C835.814 602.918 836.217 602.68 836.671 602.514C837.133 602.341 837.63 602.254 838.164 602.254C839.137 602.254 839.984 602.499 840.705 602.99C841.433 603.48 841.995 604.168 842.392 605.055C842.795 605.942 842.997 606.983 842.997 608.18V608.191C842.997 609.395 842.795 610.44 842.392 611.327C841.988 612.206 841.426 612.891 840.705 613.381C839.991 613.871 839.151 614.116 838.185 614.116C837.652 614.116 837.151 614.034 836.682 613.868C836.221 613.695 835.81 613.453 835.449 613.143C835.089 612.833 834.797 612.466 834.574 612.04H834.465V617.739H832.584ZM837.774 612.451C838.459 612.451 839.047 612.278 839.537 611.932C840.027 611.586 840.406 611.096 840.672 610.462C840.939 609.827 841.072 609.07 841.072 608.191V608.18C841.072 607.293 840.939 606.533 840.672 605.898C840.406 605.264 840.027 604.777 839.537 604.439C839.047 604.093 838.459 603.92 837.774 603.92C837.104 603.92 836.516 604.096 836.012 604.449C835.514 604.795 835.129 605.286 834.855 605.92C834.581 606.554 834.444 607.308 834.444 608.18V608.191C834.444 609.056 834.581 609.809 834.855 610.451C835.136 611.085 835.525 611.579 836.023 611.932C836.52 612.278 837.104 612.451 837.774 612.451ZM849.236 614.062C848.133 614.062 847.319 613.817 846.793 613.327C846.274 612.837 846.014 612.047 846.014 610.959V604.028H844.284V602.471H846.014V599.443H847.96V602.471H850.285V604.028H847.96V610.743C847.96 611.377 848.09 611.82 848.35 612.073C848.609 612.325 849.013 612.451 849.561 612.451C849.698 612.451 849.82 612.448 849.928 612.44C850.044 612.433 850.163 612.422 850.285 612.408V613.965C850.141 613.987 849.975 614.008 849.788 614.03C849.608 614.052 849.424 614.062 849.236 614.062ZM857.087 614.116C855.991 614.116 855.05 613.875 854.264 613.392C853.486 612.909 852.884 612.228 852.459 611.348C852.041 610.462 851.832 609.42 851.832 608.223V608.212C851.832 607.037 852.041 606.003 852.459 605.109C852.884 604.215 853.482 603.516 854.254 603.011C855.025 602.507 855.93 602.254 856.968 602.254C858.006 602.254 858.9 602.496 859.649 602.979C860.399 603.462 860.972 604.136 861.369 605.001C861.772 605.859 861.974 606.857 861.974 607.996V608.71H852.783V607.218H861.034L860.082 608.591V607.856C860.082 606.962 859.949 606.226 859.682 605.65C859.415 605.073 859.044 604.644 858.568 604.363C858.1 604.075 857.563 603.93 856.957 603.93C856.344 603.93 855.793 604.082 855.303 604.385C854.82 604.68 854.437 605.12 854.156 605.704C853.882 606.288 853.745 607.005 853.745 607.856V608.591C853.745 609.398 853.882 610.09 854.156 610.667C854.43 611.236 854.82 611.676 855.324 611.986C855.836 612.289 856.438 612.44 857.13 612.44C857.627 612.44 858.067 612.368 858.449 612.224C858.831 612.08 859.148 611.889 859.401 611.651C859.653 611.413 859.83 611.154 859.931 610.872L859.974 610.775H861.834L861.812 610.872C861.711 611.305 861.531 611.716 861.271 612.105C861.012 612.494 860.677 612.84 860.266 613.143C859.862 613.446 859.39 613.684 858.849 613.857C858.316 614.03 857.728 614.116 857.087 614.116ZM868.592 614.116C867.626 614.116 866.779 613.871 866.051 613.381C865.33 612.891 864.768 612.202 864.364 611.316C863.968 610.429 863.769 609.387 863.769 608.191V608.169C863.769 606.972 863.968 605.934 864.364 605.055C864.768 604.168 865.33 603.48 866.051 602.99C866.772 602.499 867.615 602.254 868.581 602.254C869.115 602.254 869.612 602.341 870.073 602.514C870.535 602.68 870.946 602.918 871.306 603.228C871.674 603.537 871.969 603.905 872.193 604.33H872.29V597.994H874.172V613.9H872.29V612.019H872.193C871.962 612.451 871.667 612.822 871.306 613.132C870.953 613.442 870.546 613.684 870.084 613.857C869.63 614.03 869.133 614.116 868.592 614.116ZM868.992 612.451C869.662 612.451 870.246 612.278 870.744 611.932C871.241 611.579 871.627 611.082 871.901 610.44C872.182 609.798 872.323 609.049 872.323 608.191V608.169C872.323 607.304 872.182 606.554 871.901 605.92C871.627 605.286 871.241 604.795 870.744 604.449C870.246 604.096 869.662 603.92 868.992 603.92C868.307 603.92 867.716 604.093 867.219 604.439C866.728 604.785 866.35 605.275 866.083 605.909C865.824 606.536 865.694 607.29 865.694 608.169V608.191C865.694 609.07 865.824 609.831 866.083 610.472C866.35 611.107 866.728 611.597 867.219 611.943C867.716 612.282 868.307 612.451 868.992 612.451Z" fill="#20201F"/>
</g>
<path d="M751.527 556.685V557.655C751.526 559.929 750.79 562.142 749.428 563.963C748.066 565.784 746.152 567.117 743.972 567.761C741.791 568.406 739.46 568.329 737.327 567.541C735.194 566.753 733.373 565.296 732.135 563.388C730.897 561.481 730.31 559.224 730.459 556.955C730.609 554.686 731.488 552.526 732.965 550.797C734.443 549.068 736.44 547.864 738.658 547.363C740.876 546.861 743.197 547.091 745.274 548.016" stroke="#20201F" stroke-width="2.37273" stroke-linecap="round" stroke-linejoin="round"/>
<path d="M737.818 556.6L740.982 559.763L751.527 549.218" stroke="#20201F" stroke-width="2.37273" stroke-linecap="round" stroke-linejoin="round"/>
<path d="M773.576 565.643C772.278 565.643 771.16 565.359 770.221 564.79C769.281 564.222 768.558 563.415 768.052 562.371C767.545 561.321 767.292 560.072 767.292 558.627V558.608C767.292 557.162 767.545 555.917 768.052 554.873C768.558 553.822 769.281 553.016 770.221 552.454C771.16 551.885 772.275 551.601 773.567 551.601C774.629 551.601 775.581 551.811 776.421 552.231C777.268 552.645 777.951 553.217 778.47 553.946C778.989 554.675 779.291 555.509 779.378 556.448V556.56H776.653L776.644 556.495C776.551 555.988 776.363 555.546 776.078 555.169C775.794 554.792 775.439 554.499 775.012 554.289C774.586 554.079 774.104 553.974 773.567 553.974C772.868 553.974 772.263 554.162 771.75 554.539C771.237 554.91 770.842 555.441 770.564 556.133C770.285 556.825 770.146 557.65 770.146 558.608V558.627C770.146 559.578 770.285 560.403 770.564 561.101C770.842 561.793 771.237 562.328 771.75 562.705C772.263 563.082 772.871 563.27 773.576 563.27C774.113 563.27 774.595 563.174 775.022 562.983C775.448 562.785 775.8 562.507 776.078 562.149C776.356 561.79 776.545 561.373 776.644 560.897L776.662 560.814H779.387L779.378 560.916C779.285 561.855 778.982 562.68 778.47 563.391C777.957 564.095 777.28 564.648 776.44 565.05C775.606 565.445 774.651 565.643 773.576 565.643ZM786.162 565.522C785.124 565.522 784.228 565.312 783.475 564.892C782.727 564.466 782.149 563.857 781.741 563.066C781.34 562.275 781.139 561.327 781.139 560.221V560.202C781.139 559.108 781.343 558.166 781.751 557.375C782.158 556.584 782.736 555.976 783.484 555.549C784.238 555.123 785.13 554.91 786.162 554.91C787.2 554.91 788.093 555.123 788.841 555.549C789.595 555.976 790.173 556.584 790.574 557.375C790.982 558.166 791.186 559.108 791.186 560.202V560.221C791.186 561.327 790.985 562.275 790.583 563.066C790.182 563.857 789.607 564.466 788.859 564.892C788.112 565.312 787.213 565.522 786.162 565.522ZM786.162 563.4C786.644 563.4 787.052 563.276 787.386 563.029C787.719 562.776 787.973 562.411 788.146 561.935C788.325 561.46 788.415 560.891 788.415 560.23V560.211C788.415 559.544 788.325 558.976 788.146 558.506C787.967 558.03 787.71 557.666 787.377 557.412C787.043 557.159 786.638 557.032 786.162 557.032C785.693 557.032 785.288 557.159 784.948 557.412C784.615 557.666 784.358 558.03 784.179 558.506C784 558.976 783.91 559.544 783.91 560.211V560.23C783.91 560.897 784 561.469 784.179 561.945C784.358 562.414 784.615 562.776 784.948 563.029C785.282 563.276 785.687 563.4 786.162 563.4ZM793.308 565.309V555.132H796.015V556.708H796.172C796.413 556.152 796.781 555.713 797.275 555.392C797.77 555.071 798.381 554.91 799.11 554.91C800.247 554.91 801.112 555.244 801.706 555.911C802.299 556.572 802.595 557.511 802.595 558.728V565.309H799.889V559.34C799.889 558.623 799.738 558.08 799.435 557.709C799.132 557.338 798.662 557.153 798.026 557.153C797.612 557.153 797.254 557.249 796.951 557.44C796.654 557.626 796.423 557.888 796.256 558.228C796.095 558.568 796.015 558.966 796.015 559.424V565.309H793.308ZM805.913 565.309V557.171H804.291V555.132H805.913V554.196C805.913 553.517 806.034 552.954 806.275 552.509C806.516 552.058 806.893 551.722 807.406 551.499C807.919 551.277 808.583 551.165 809.398 551.165C809.676 551.165 809.93 551.175 810.158 551.193C810.387 551.212 810.597 551.236 810.789 551.267V553.065C810.702 553.053 810.591 553.044 810.455 553.038C810.319 553.025 810.165 553.019 809.992 553.019C809.473 553.019 809.105 553.136 808.889 553.371C808.672 553.6 808.564 553.934 808.564 554.372V555.132H810.705V557.171H808.62V565.309H805.913ZM812.818 565.309V555.132H815.525V565.309H812.818ZM814.172 553.584C813.758 553.584 813.399 553.439 813.097 553.149C812.8 552.858 812.652 552.506 812.652 552.092C812.652 551.678 812.8 551.326 813.097 551.036C813.399 550.745 813.758 550.6 814.172 550.6C814.592 550.6 814.95 550.745 815.247 551.036C815.543 551.326 815.692 551.678 815.692 552.092C815.692 552.506 815.543 552.858 815.247 553.149C814.95 553.439 814.592 553.584 814.172 553.584ZM818.166 565.309V555.132H820.873V556.736H821.03C821.197 556.173 821.5 555.738 821.939 555.429C822.377 555.12 822.924 554.965 823.579 554.965C823.758 554.965 823.934 554.978 824.107 555.003C824.287 555.021 824.441 555.049 824.571 555.086V557.449C824.373 557.4 824.172 557.363 823.968 557.338C823.765 557.313 823.558 557.301 823.347 557.301C822.841 557.301 822.402 557.394 822.031 557.579C821.661 557.765 821.373 558.03 821.169 558.376C820.972 558.716 820.873 559.127 820.873 559.609V565.309H818.166ZM826.397 565.309V555.132H829.103V556.736H829.261C829.477 556.155 829.832 555.707 830.327 555.392C830.827 555.071 831.414 554.91 832.088 554.91C832.551 554.91 832.968 554.987 833.339 555.142C833.716 555.29 834.037 555.506 834.303 555.79C834.568 556.068 834.769 556.408 834.905 556.81H835.063C835.223 556.427 835.452 556.093 835.749 555.809C836.051 555.525 836.407 555.305 836.815 555.151C837.229 554.99 837.67 554.91 838.14 554.91C838.82 554.91 839.404 555.049 839.892 555.327C840.386 555.605 840.766 556 841.032 556.513C841.304 557.02 841.44 557.626 841.44 558.33V565.309H838.733V559.007C838.733 558.593 838.671 558.25 838.548 557.978C838.424 557.706 838.239 557.502 837.992 557.366C837.744 557.224 837.432 557.153 837.056 557.153C836.691 557.153 836.373 557.236 836.101 557.403C835.835 557.564 835.628 557.789 835.48 558.08C835.338 558.364 835.267 558.691 835.267 559.062V565.309H832.57V558.877C832.57 558.518 832.502 558.209 832.366 557.95C832.236 557.69 832.044 557.493 831.791 557.357C831.544 557.221 831.244 557.153 830.892 557.153C830.546 557.153 830.237 557.239 829.965 557.412C829.699 557.585 829.489 557.826 829.335 558.135C829.18 558.438 829.103 558.784 829.103 559.173V565.309H826.397ZM846.769 565.467C846.12 565.467 845.545 565.343 845.045 565.096C844.544 564.843 844.152 564.487 843.868 564.03C843.584 563.567 843.441 563.029 843.441 562.417V562.399C843.441 561.787 843.593 561.262 843.896 560.823C844.205 560.384 844.653 560.042 845.24 559.794C845.827 559.541 846.543 559.39 847.39 559.34L851.19 559.108V560.768L847.798 560.981C847.223 561.018 846.794 561.144 846.509 561.361C846.225 561.571 846.083 561.861 846.083 562.232V562.25C846.083 562.634 846.231 562.936 846.528 563.159C846.824 563.381 847.208 563.492 847.677 563.492C848.091 563.492 848.462 563.409 848.789 563.242C849.117 563.075 849.376 562.85 849.568 562.566C849.759 562.281 849.855 561.96 849.855 561.602V558.376C849.855 557.931 849.707 557.588 849.41 557.347C849.12 557.106 848.7 556.986 848.15 556.986C847.662 556.986 847.263 557.073 846.954 557.246C846.651 557.412 846.448 557.647 846.343 557.95L846.324 557.987H843.831L843.84 557.904C843.908 557.298 844.13 556.773 844.507 556.328C844.89 555.883 845.403 555.537 846.046 555.29C846.689 555.037 847.436 554.91 848.289 554.91C849.191 554.91 849.957 555.049 850.587 555.327C851.218 555.599 851.697 555.991 852.024 556.504C852.358 557.017 852.525 557.635 852.525 558.358V565.309H849.855V563.947H849.698C849.525 564.262 849.293 564.534 849.003 564.762C848.712 564.991 848.378 565.167 848.002 565.291C847.625 565.408 847.214 565.467 846.769 565.467ZM859.309 565.365C858.079 565.365 857.193 565.145 856.649 564.707C856.111 564.268 855.843 563.551 855.843 562.556V557.171H854.286V555.132H855.843V552.695H858.577V555.132H860.653V557.171H858.577V561.963C858.577 562.42 858.679 562.754 858.883 562.964C859.093 563.174 859.423 563.279 859.874 563.279C860.041 563.279 860.18 563.276 860.292 563.27C860.409 563.264 860.529 563.255 860.653 563.242V565.244C860.486 565.275 860.285 565.303 860.051 565.328C859.816 565.352 859.569 565.365 859.309 565.365ZM862.85 565.309V555.132H865.556V565.309H862.85ZM864.203 553.584C863.789 553.584 863.43 553.439 863.128 553.149C862.831 552.858 862.683 552.506 862.683 552.092C862.683 551.678 862.831 551.326 863.128 551.036C863.43 550.745 863.789 550.6 864.203 550.6C864.623 550.6 864.981 550.745 865.278 551.036C865.575 551.326 865.723 551.678 865.723 552.092C865.723 552.506 865.575 552.858 865.278 553.149C864.981 553.439 864.623 553.584 864.203 553.584ZM872.73 565.522C871.692 565.522 870.796 565.312 870.042 564.892C869.294 564.466 868.717 563.857 868.309 563.066C867.907 562.275 867.706 561.327 867.706 560.221V560.202C867.706 559.108 867.91 558.166 868.318 557.375C868.726 556.584 869.304 555.976 870.051 555.549C870.805 555.123 871.698 554.91 872.73 554.91C873.768 554.91 874.661 555.123 875.408 555.549C876.162 555.976 876.74 556.584 877.142 557.375C877.549 558.166 877.753 559.108 877.753 560.202V560.221C877.753 561.327 877.553 562.275 877.151 563.066C876.749 563.857 876.175 564.466 875.427 564.892C874.679 565.312 873.78 565.522 872.73 565.522ZM872.73 563.4C873.212 563.4 873.62 563.276 873.953 563.029C874.287 562.776 874.54 562.411 874.713 561.935C874.892 561.46 874.982 560.891 874.982 560.23V560.211C874.982 559.544 874.892 558.976 874.713 558.506C874.534 558.03 874.278 557.666 873.944 557.412C873.61 557.159 873.206 557.032 872.73 557.032C872.26 557.032 871.856 557.159 871.516 557.412C871.182 557.666 870.926 558.03 870.746 558.506C870.567 558.976 870.478 559.544 870.478 560.211V560.23C870.478 560.897 870.567 561.469 870.746 561.945C870.926 562.414 871.182 562.776 871.516 563.029C871.849 563.276 872.254 563.4 872.73 563.4ZM879.876 565.309V555.132H882.582V556.708H882.74C882.981 556.152 883.348 555.713 883.843 555.392C884.337 555.071 884.949 554.91 885.678 554.91C886.815 554.91 887.68 555.244 888.273 555.911C888.866 556.572 889.163 557.511 889.163 558.728V565.309H886.456V559.34C886.456 558.623 886.305 558.08 886.002 557.709C885.7 557.338 885.23 557.153 884.593 557.153C884.179 557.153 883.821 557.249 883.518 557.44C883.222 557.626 882.99 557.888 882.823 558.228C882.663 558.568 882.582 558.966 882.582 559.424V565.309H879.876Z" fill="#20201F"/>
<g filter="url(#filter2_d_855_194)">
<rect x="619" y="264" width="241.623" height="70.541" rx="12.9529" fill="#E8EDDF" shape-rendering="crispEdges"/>
<path d="M673.69 290.636L657.859 306.468L650.663 299.271" stroke="#20201F" stroke-width="3.23822" stroke-linecap="round" stroke-linejoin="round"/>
<path d="M705.749 310.625C704.214 310.625 702.861 310.389 701.691 309.916C700.53 309.434 699.605 308.75 698.916 307.865C698.237 306.98 697.854 305.932 697.765 304.722L697.75 304.515H700.407L700.436 304.722C700.544 305.43 700.835 306.045 701.307 306.566C701.779 307.078 702.404 307.476 703.181 307.762C703.968 308.037 704.873 308.175 705.896 308.175C706.92 308.175 707.805 308.032 708.553 307.747C709.301 307.452 709.876 307.034 710.279 306.493C710.693 305.951 710.899 305.317 710.899 304.589V304.574C710.899 303.639 710.575 302.892 709.925 302.331C709.276 301.77 708.218 301.327 706.752 301.003L704.391 300.486C702.315 300.024 700.776 299.316 699.772 298.361C698.778 297.397 698.282 296.138 698.282 294.583V294.569C698.291 293.398 698.616 292.37 699.256 291.484C699.895 290.589 700.776 289.89 701.897 289.389C703.029 288.877 704.322 288.621 705.778 288.621C707.166 288.621 708.405 288.872 709.497 289.374C710.589 289.866 711.46 290.554 712.109 291.44C712.769 292.325 713.137 293.349 713.216 294.51L713.231 294.731H710.575L710.545 294.524C710.437 293.796 710.171 293.176 709.748 292.665C709.325 292.153 708.769 291.76 708.081 291.484C707.402 291.209 706.61 291.071 705.705 291.071C704.76 291.071 703.934 291.214 703.225 291.499C702.517 291.784 701.966 292.183 701.572 292.694C701.189 293.206 700.997 293.806 700.997 294.495V294.51C700.997 295.375 701.327 296.089 701.986 296.649C702.645 297.21 703.668 297.643 705.055 297.948L707.416 298.465C708.873 298.779 710.053 299.197 710.958 299.719C711.873 300.24 712.542 300.89 712.965 301.667C713.398 302.434 713.615 303.359 713.615 304.441V304.456C713.615 305.715 713.295 306.807 712.655 307.732C712.026 308.657 711.121 309.37 709.94 309.872C708.769 310.374 707.372 310.625 705.749 310.625ZM716.33 315.436V294.923H718.898V297.52H718.957C719.281 296.92 719.68 296.408 720.152 295.985C720.634 295.552 721.185 295.218 721.805 294.982C722.425 294.746 723.099 294.628 723.827 294.628C725.135 294.628 726.277 294.957 727.251 295.616C728.234 296.266 728.997 297.19 729.538 298.391C730.079 299.581 730.35 300.983 730.35 302.597V302.611C730.35 304.225 730.074 305.627 729.523 306.817C728.982 308.008 728.225 308.932 727.251 309.592C726.286 310.241 725.16 310.566 723.871 310.566C723.153 310.566 722.479 310.453 721.849 310.226C721.22 309.99 720.659 309.661 720.167 309.237C719.685 308.805 719.281 308.293 718.957 307.703H718.898V315.436H716.33ZM723.325 308.293C724.23 308.293 725.012 308.062 725.671 307.599C726.331 307.137 726.837 306.483 727.192 305.637C727.546 304.781 727.723 303.772 727.723 302.611V302.597C727.723 301.416 727.546 300.403 727.192 299.557C726.837 298.701 726.331 298.046 725.671 297.594C725.012 297.131 724.23 296.9 723.325 296.9C722.459 296.9 721.692 297.136 721.023 297.609C720.354 298.081 719.828 298.745 719.444 299.601C719.07 300.447 718.883 301.446 718.883 302.597V302.611C718.883 303.753 719.075 304.751 719.459 305.607C719.842 306.453 720.364 307.112 721.023 307.585C721.692 308.057 722.459 308.293 723.325 308.293ZM739.307 310.566C737.891 310.566 736.646 310.241 735.574 309.592C734.511 308.942 733.68 308.022 733.08 306.832C732.489 305.632 732.194 304.22 732.194 302.597V302.567C732.194 300.934 732.489 299.527 733.08 298.346C733.68 297.156 734.511 296.241 735.574 295.602C736.646 294.952 737.886 294.628 739.293 294.628C740.709 294.628 741.949 294.952 743.012 295.602C744.084 296.241 744.915 297.156 745.506 298.346C746.106 299.527 746.406 300.934 746.406 302.567V302.597C746.406 304.23 746.106 305.642 745.506 306.832C744.915 308.022 744.089 308.942 743.026 309.592C741.964 310.241 740.724 310.566 739.307 310.566ZM739.322 308.293C740.227 308.293 741.009 308.072 741.669 307.629C742.338 307.176 742.854 306.527 743.218 305.681C743.592 304.825 743.779 303.797 743.779 302.597V302.567C743.779 301.367 743.592 300.344 743.218 299.498C742.854 298.651 742.333 298.007 741.654 297.564C740.985 297.122 740.198 296.9 739.293 296.9C738.407 296.9 737.625 297.127 736.946 297.579C736.277 298.022 735.756 298.666 735.382 299.512C735.008 300.349 734.821 301.367 734.821 302.567V302.597C734.821 303.797 735.008 304.825 735.382 305.681C735.756 306.527 736.277 307.176 736.946 307.629C737.625 308.072 738.417 308.293 739.322 308.293ZM749.003 310.271V294.923H751.571V297.107H751.63C752.043 296.389 752.643 295.798 753.43 295.336C754.217 294.864 755.191 294.628 756.352 294.628C758.035 294.628 759.338 295.139 760.263 296.162C761.198 297.176 761.665 298.558 761.665 300.309V310.271H759.097V300.767C759.097 299.517 758.802 298.563 758.212 297.904C757.631 297.235 756.751 296.9 755.57 296.9C754.763 296.9 754.06 297.082 753.46 297.446C752.86 297.8 752.392 298.302 752.058 298.952C751.733 299.601 751.571 300.363 751.571 301.239V310.271H749.003ZM770.387 310.566C769.186 310.566 768.148 310.374 767.273 309.99C766.397 309.606 765.704 309.07 765.192 308.382C764.69 307.693 764.385 306.891 764.277 305.976L764.262 305.843H766.83L766.86 305.991C767.017 306.758 767.386 307.358 767.966 307.791C768.547 308.214 769.359 308.426 770.401 308.426C771.1 308.426 771.695 308.337 772.187 308.16C772.679 307.973 773.058 307.713 773.323 307.378C773.589 307.034 773.722 306.63 773.722 306.168V306.153C773.722 305.602 773.555 305.159 773.22 304.825C772.886 304.49 772.281 304.215 771.405 303.999L768.97 303.408C768.006 303.172 767.204 302.867 766.564 302.493C765.935 302.11 765.463 301.642 765.148 301.091C764.833 300.54 764.676 299.896 764.676 299.158V299.143C764.676 298.258 764.912 297.476 765.384 296.797C765.866 296.118 766.53 295.587 767.376 295.203C768.232 294.819 769.211 294.628 770.313 294.628C771.434 294.628 772.408 294.829 773.235 295.233C774.071 295.626 774.725 296.167 775.198 296.856C775.68 297.535 775.95 298.302 776.009 299.158L776.024 299.35H773.574L773.56 299.247C773.461 298.499 773.132 297.899 772.571 297.446C772.02 296.994 771.267 296.767 770.313 296.767C769.693 296.767 769.157 296.861 768.704 297.048C768.252 297.235 767.903 297.5 767.657 297.845C767.42 298.179 767.302 298.573 767.302 299.025V299.04C767.302 299.384 767.381 299.699 767.538 299.985C767.706 300.26 767.966 300.501 768.321 300.708C768.675 300.914 769.132 301.086 769.693 301.224L772.128 301.814C773.683 302.188 774.775 302.705 775.404 303.364C776.034 304.013 776.349 304.884 776.349 305.976V305.991C776.349 306.886 776.088 307.678 775.567 308.367C775.055 309.055 774.347 309.597 773.441 309.99C772.546 310.374 771.528 310.566 770.387 310.566ZM785.38 310.566C783.964 310.566 782.719 310.241 781.647 309.592C780.584 308.942 779.753 308.022 779.153 306.832C778.562 305.632 778.267 304.22 778.267 302.597V302.567C778.267 300.934 778.562 299.527 779.153 298.346C779.753 297.156 780.584 296.241 781.647 295.602C782.719 294.952 783.959 294.628 785.366 294.628C786.782 294.628 788.022 294.952 789.084 295.602C790.157 296.241 790.988 297.156 791.578 298.346C792.179 299.527 792.479 300.934 792.479 302.567V302.597C792.479 304.23 792.179 305.642 791.578 306.832C790.988 308.022 790.162 308.942 789.099 309.592C788.037 310.241 786.797 310.566 785.38 310.566ZM785.395 308.293C786.3 308.293 787.082 308.072 787.741 307.629C788.41 307.176 788.927 306.527 789.291 305.681C789.665 304.825 789.852 303.797 789.852 302.597V302.567C789.852 301.367 789.665 300.344 789.291 299.498C788.927 298.651 788.406 298.007 787.727 297.564C787.058 297.122 786.271 296.9 785.366 296.9C784.48 296.9 783.698 297.127 783.019 297.579C782.35 298.022 781.829 298.666 781.455 299.512C781.081 300.349 780.894 301.367 780.894 302.567V302.597C780.894 303.797 781.081 304.825 781.455 305.681C781.829 306.527 782.35 307.176 783.019 307.629C783.698 308.072 784.49 308.293 785.395 308.293ZM795.076 310.271V294.923H797.644V297.52H797.703C797.959 296.635 798.401 295.931 799.031 295.41C799.661 294.888 800.408 294.628 801.274 294.628C801.5 294.628 801.702 294.642 801.879 294.672C802.066 294.692 802.209 294.711 802.307 294.731V297.225C802.209 297.186 802.032 297.151 801.776 297.122C801.53 297.092 801.25 297.077 800.935 297.077C800.276 297.077 799.695 297.225 799.193 297.52C798.701 297.815 798.318 298.243 798.042 298.804C797.777 299.355 797.644 300.019 797.644 300.796V310.271H795.076ZM809.981 310.566C808.515 310.566 807.251 310.241 806.188 309.592C805.136 308.942 804.324 308.027 803.753 306.847C803.193 305.656 802.912 304.259 802.912 302.656V302.641C802.912 301.057 803.198 299.665 803.768 298.465C804.339 297.254 805.141 296.315 806.174 295.646C807.207 294.967 808.422 294.628 809.819 294.628C811.216 294.628 812.416 294.952 813.42 295.602C814.433 296.241 815.21 297.141 815.751 298.302C816.292 299.463 816.563 300.811 816.563 302.346V303.29H804.196V301.283H815.294L813.995 303.143V302.154C813.995 300.963 813.813 299.98 813.449 299.202C813.095 298.425 812.603 297.85 811.973 297.476C811.344 297.092 810.621 296.9 809.804 296.9C808.987 296.9 808.254 297.102 807.605 297.505C806.956 297.899 806.444 298.489 806.07 299.276C805.696 300.053 805.51 301.013 805.51 302.154V303.143C805.51 304.225 805.692 305.15 806.056 305.917C806.429 306.684 806.956 307.275 807.635 307.688C808.313 308.091 809.115 308.293 810.04 308.293C810.689 308.293 811.27 308.195 811.781 307.998C812.293 307.801 812.721 307.531 813.065 307.186C813.41 306.842 813.656 306.448 813.803 306.006L813.847 305.873H816.371L816.342 306.02C816.214 306.65 815.968 307.24 815.604 307.791C815.249 308.342 814.792 308.829 814.231 309.252C813.67 309.665 813.031 309.99 812.313 310.226C811.595 310.453 810.817 310.566 809.981 310.566ZM824.93 310.566C823.622 310.566 822.476 310.241 821.492 309.592C820.518 308.932 819.76 308.008 819.219 306.817C818.678 305.617 818.408 304.21 818.408 302.597V302.582C818.408 300.968 818.678 299.566 819.219 298.376C819.77 297.186 820.533 296.266 821.507 295.616C822.481 294.957 823.607 294.628 824.886 294.628C825.614 294.628 826.288 294.746 826.908 294.982C827.538 295.208 828.098 295.538 828.59 295.97C829.082 296.394 829.486 296.9 829.8 297.491H829.859V288.975H832.427V310.271H829.859V307.673H829.8C829.486 308.273 829.087 308.79 828.605 309.223C828.123 309.646 827.572 309.975 826.952 310.211C826.342 310.448 825.668 310.566 824.93 310.566ZM825.432 308.293C826.298 308.293 827.065 308.057 827.734 307.585C828.403 307.112 828.925 306.448 829.299 305.592C829.682 304.736 829.874 303.738 829.874 302.597V302.582C829.874 301.441 829.682 300.447 829.299 299.601C828.915 298.745 828.389 298.081 827.72 297.609C827.06 297.136 826.298 296.9 825.432 296.9C824.527 296.9 823.745 297.131 823.086 297.594C822.427 298.056 821.92 298.71 821.566 299.557C821.211 300.403 821.034 301.411 821.034 302.582V302.597C821.034 303.767 821.211 304.781 821.566 305.637C821.92 306.493 822.427 307.152 823.086 307.614C823.745 308.067 824.527 308.293 825.432 308.293Z" fill="#20201F"/>
</g>
<path d="M621.041 243.583H637.958" stroke="#20201F" stroke-width="2.71875" stroke-linecap="round" stroke-linejoin="round"/>
<path d="M621.041 219.416H637.958" stroke="#20201F" stroke-width="2.71875" stroke-linecap="round" stroke-linejoin="round"/>
<path d="M635.542 243.583V238.542C635.542 237.901 635.287 237.286 634.834 236.833L629.5 231.5L624.167 236.833C623.714 237.286 623.459 237.901 623.459 238.542V243.583" stroke="#20201F" stroke-width="2.71875" stroke-linecap="round" stroke-linejoin="round"/>
<path d="M623.459 219.416V224.457C623.459 225.098 623.714 225.713 624.167 226.166L629.5 231.499L634.834 226.166C635.287 225.713 635.542 225.098 635.542 224.457V219.416" stroke="#20201F" stroke-width="2.71875" stroke-linecap="round" stroke-linejoin="round"/>
<path d="M665.605 239.829C664.387 239.829 663.329 239.649 662.429 239.288C661.53 238.927 660.822 238.413 660.305 237.748C659.789 237.075 659.502 236.275 659.445 235.348L659.435 235.178H662.493L662.504 235.294C662.56 235.684 662.727 236.024 663.003 236.314C663.286 236.597 663.658 236.82 664.118 236.983C664.578 237.146 665.102 237.227 665.69 237.227C666.27 237.227 666.777 237.146 667.208 236.983C667.64 236.813 667.977 236.579 668.217 236.282C668.458 235.985 668.578 235.641 668.578 235.252V235.241C668.578 234.732 668.373 234.328 667.963 234.031C667.559 233.726 666.879 233.478 665.923 233.287L664.309 232.958C662.759 232.646 661.612 232.123 660.868 231.386C660.125 230.65 659.753 229.701 659.753 228.54V228.529C659.753 227.588 660.005 226.766 660.507 226.066C661.01 225.365 661.7 224.819 662.578 224.43C663.456 224.041 664.461 223.846 665.594 223.846C666.784 223.846 667.807 224.037 668.663 224.419C669.52 224.795 670.189 225.319 670.671 225.991C671.152 226.657 671.421 227.428 671.478 228.306L671.488 228.466H668.462L668.44 228.338C668.384 227.956 668.232 227.627 667.984 227.351C667.736 227.067 667.407 226.848 666.996 226.692C666.593 226.529 666.125 226.448 665.594 226.448C665.056 226.448 664.589 226.526 664.192 226.682C663.803 226.837 663.499 227.057 663.279 227.34C663.067 227.616 662.96 227.942 662.96 228.317V228.328C662.96 228.816 663.162 229.213 663.566 229.517C663.969 229.822 664.617 230.066 665.509 230.25L667.134 230.579C668.21 230.799 669.088 231.096 669.768 231.471C670.455 231.846 670.961 232.317 671.287 232.884C671.619 233.45 671.786 234.133 671.786 234.933V234.944C671.786 235.942 671.538 236.81 671.042 237.546C670.547 238.275 669.835 238.838 668.908 239.234C667.987 239.631 666.886 239.829 665.605 239.829ZM673.995 243.302V227.956H677.096V229.857H677.223C677.429 229.418 677.698 229.043 678.03 228.731C678.37 228.413 678.767 228.172 679.22 228.009C679.673 227.839 680.172 227.754 680.717 227.754C681.687 227.754 682.523 227.995 683.224 228.476C683.925 228.951 684.463 229.634 684.838 230.526C685.22 231.418 685.411 232.484 685.411 233.723V233.733C685.411 234.979 685.224 236.048 684.849 236.941C684.473 237.833 683.935 238.519 683.234 239.001C682.54 239.475 681.708 239.712 680.739 239.712C680.2 239.712 679.701 239.627 679.241 239.458C678.788 239.281 678.388 239.036 678.041 238.725C677.701 238.413 677.429 238.038 677.223 237.599H677.096V243.302H673.995ZM679.677 237.142C680.208 237.142 680.664 237.004 681.047 236.728C681.436 236.452 681.733 236.059 681.939 235.549C682.151 235.04 682.257 234.434 682.257 233.733V233.723C682.257 233.015 682.151 232.406 681.939 231.896C681.733 231.386 681.436 230.997 681.047 230.728C680.664 230.459 680.208 230.324 679.677 230.324C679.153 230.324 678.692 230.462 678.296 230.738C677.906 231.007 677.606 231.397 677.393 231.907C677.181 232.409 677.075 233.015 677.075 233.723V233.733C677.075 234.434 677.181 235.04 677.393 235.549C677.613 236.059 677.917 236.452 678.307 236.728C678.696 237.004 679.153 237.142 679.677 237.142ZM692.707 239.744C691.532 239.744 690.516 239.504 689.659 239.022C688.81 238.541 688.155 237.854 687.695 236.962C687.234 236.063 687.004 234.986 687.004 233.733V233.712C687.004 232.473 687.238 231.407 687.705 230.515C688.173 229.616 688.831 228.926 689.681 228.444C690.537 227.956 691.546 227.712 692.707 227.712C693.876 227.712 694.885 227.952 695.734 228.434C696.584 228.915 697.242 229.606 697.709 230.505C698.177 231.397 698.41 232.466 698.41 233.712V233.733C698.41 234.986 698.18 236.063 697.72 236.962C697.26 237.854 696.601 238.541 695.745 239.022C694.895 239.504 693.883 239.744 692.707 239.744ZM692.707 237.312C693.238 237.312 693.692 237.171 694.067 236.887C694.449 236.604 694.739 236.197 694.938 235.666C695.143 235.135 695.246 234.491 695.246 233.733V233.712C695.246 232.962 695.143 232.321 694.938 231.79C694.732 231.259 694.438 230.852 694.056 230.568C693.681 230.285 693.231 230.144 692.707 230.144C692.183 230.144 691.73 230.289 691.348 230.579C690.973 230.862 690.682 231.269 690.477 231.8C690.272 232.324 690.169 232.962 690.169 233.712V233.733C690.169 234.491 690.268 235.135 690.467 235.666C690.672 236.197 690.966 236.604 691.348 236.887C691.73 237.171 692.183 237.312 692.707 237.312ZM700.481 239.5V227.956H703.582V229.793H703.71C703.993 229.149 704.421 228.643 704.995 228.275C705.568 227.899 706.276 227.712 707.119 227.712C708.4 227.712 709.381 228.094 710.061 228.859C710.747 229.616 711.091 230.678 711.091 232.045V239.5H707.99V232.714C707.99 231.928 707.813 231.326 707.459 230.908C707.112 230.491 706.581 230.282 705.866 230.282C705.398 230.282 704.991 230.391 704.644 230.611C704.305 230.823 704.043 231.121 703.859 231.503C703.674 231.885 703.582 232.335 703.582 232.852V239.5H700.481ZM718.249 239.744C717.194 239.744 716.295 239.596 715.551 239.298C714.815 239.001 714.238 238.587 713.82 238.056C713.402 237.525 713.155 236.912 713.077 236.218L713.066 236.155H716.104L716.125 236.218C716.238 236.622 716.468 236.944 716.815 237.185C717.169 237.426 717.654 237.546 718.27 237.546C718.667 237.546 719.006 237.496 719.29 237.397C719.58 237.291 719.803 237.146 719.959 236.962C720.121 236.778 720.203 236.562 720.203 236.314V236.293C720.203 235.988 720.083 235.737 719.842 235.539C719.608 235.34 719.205 235.178 718.631 235.05L716.688 234.647C715.944 234.484 715.325 234.257 714.829 233.967C714.341 233.67 713.972 233.301 713.725 232.862C713.477 232.423 713.353 231.917 713.353 231.344V231.333C713.353 230.604 713.551 229.97 713.948 229.432C714.351 228.887 714.914 228.466 715.636 228.168C716.358 227.864 717.204 227.712 718.174 227.712C719.194 227.712 720.058 227.871 720.766 228.19C721.474 228.501 722.019 228.922 722.401 229.453C722.784 229.984 722.989 230.572 723.017 231.216L723.028 231.291H720.15L720.139 231.227C720.075 230.866 719.874 230.558 719.534 230.303C719.201 230.041 718.748 229.91 718.174 229.91C717.813 229.91 717.498 229.96 717.229 230.059C716.96 230.158 716.751 230.303 716.603 230.494C716.454 230.678 716.38 230.898 716.38 231.153V231.163C716.38 231.361 716.429 231.538 716.528 231.694C716.635 231.85 716.804 231.984 717.038 232.098C717.272 232.211 717.583 232.31 717.973 232.395L719.916 232.809C721.099 233.064 721.959 233.443 722.497 233.946C723.035 234.441 723.304 235.114 723.304 235.964V235.985C723.304 236.735 723.088 237.394 722.656 237.96C722.224 238.526 721.63 238.965 720.872 239.277C720.114 239.589 719.24 239.744 718.249 239.744ZM730.557 239.744C729.382 239.744 728.366 239.504 727.51 239.022C726.66 238.541 726.005 237.854 725.545 236.962C725.085 236.063 724.854 234.986 724.854 233.733V233.712C724.854 232.473 725.088 231.407 725.555 230.515C726.023 229.616 726.681 228.926 727.531 228.444C728.387 227.956 729.396 227.712 730.557 227.712C731.726 227.712 732.735 227.952 733.584 228.434C734.434 228.915 735.092 229.606 735.56 230.505C736.027 231.397 736.26 232.466 736.26 233.712V233.733C736.26 234.986 736.03 236.063 735.57 236.962C735.11 237.854 734.452 238.541 733.595 239.022C732.745 239.504 731.733 239.744 730.557 239.744ZM730.557 237.312C731.089 237.312 731.542 237.171 731.917 236.887C732.299 236.604 732.589 236.197 732.788 235.666C732.993 235.135 733.096 234.491 733.096 233.733V233.712C733.096 232.962 732.993 232.321 732.788 231.79C732.582 231.259 732.289 230.852 731.906 230.568C731.531 230.285 731.081 230.144 730.557 230.144C730.034 230.144 729.58 230.289 729.198 230.579C728.823 230.862 728.533 231.269 728.327 231.8C728.122 232.324 728.019 232.962 728.019 233.712V233.733C728.019 234.491 728.118 235.135 728.317 235.666C728.522 236.197 728.816 236.604 729.198 236.887C729.58 237.171 730.034 237.312 730.557 237.312ZM738.331 239.5V227.956H741.432V229.857H741.56C741.737 229.191 742.066 228.675 742.548 228.306C743.029 227.938 743.624 227.754 744.332 227.754C744.523 227.754 744.707 227.768 744.884 227.797C745.068 227.818 745.227 227.846 745.362 227.882V230.6C745.178 230.544 744.976 230.501 744.757 230.473C744.544 230.445 744.321 230.43 744.088 230.43C743.535 230.43 743.061 230.533 742.664 230.738C742.268 230.944 741.964 231.241 741.751 231.63C741.539 232.02 741.432 232.491 741.432 233.043V239.5H738.331ZM751.575 239.744C750.52 239.744 749.621 239.596 748.877 239.298C748.141 239.001 747.564 238.587 747.146 238.056C746.728 237.525 746.481 236.912 746.403 236.218L746.392 236.155H749.429L749.451 236.218C749.564 236.622 749.794 236.944 750.141 237.185C750.495 237.426 750.98 237.546 751.596 237.546C751.992 237.546 752.332 237.496 752.615 237.397C752.906 237.291 753.129 237.146 753.285 236.962C753.447 236.778 753.529 236.562 753.529 236.314V236.293C753.529 235.988 753.408 235.737 753.168 235.539C752.934 235.34 752.531 235.178 751.957 235.05L750.014 234.647C749.27 234.484 748.651 234.257 748.155 233.967C747.667 233.67 747.298 233.301 747.051 232.862C746.803 232.423 746.679 231.917 746.679 231.344V231.333C746.679 230.604 746.877 229.97 747.274 229.432C747.677 228.887 748.24 228.466 748.962 228.168C749.684 227.864 750.53 227.712 751.5 227.712C752.52 227.712 753.384 227.871 754.092 228.19C754.8 228.501 755.345 228.922 755.727 229.453C756.109 229.984 756.315 230.572 756.343 231.216L756.354 231.291H753.476L753.465 231.227C753.401 230.866 753.2 230.558 752.86 230.303C752.527 230.041 752.074 229.91 751.5 229.91C751.139 229.91 750.824 229.96 750.555 230.059C750.286 230.158 750.077 230.303 749.929 230.494C749.78 230.678 749.706 230.898 749.706 231.153V231.163C749.706 231.361 749.755 231.538 749.854 231.694C749.96 231.85 750.13 231.984 750.364 232.098C750.598 232.211 750.909 232.31 751.299 232.395L753.242 232.809C754.424 233.064 755.285 233.443 755.823 233.946C756.361 234.441 756.63 235.114 756.63 235.964V235.985C756.63 236.735 756.414 237.394 755.982 237.96C755.55 238.526 754.955 238.965 754.198 239.277C753.44 239.589 752.566 239.744 751.575 239.744ZM758.765 239.5V223.75H761.866V229.846H762.004C762.28 229.174 762.708 228.65 763.289 228.275C763.869 227.899 764.581 227.712 765.423 227.712C766.273 227.712 766.992 227.889 767.579 228.243C768.174 228.597 768.627 229.106 768.939 229.772C769.257 230.43 769.417 231.22 769.417 232.14V239.5H766.315V232.809C766.315 232.002 766.135 231.379 765.774 230.94C765.413 230.501 764.871 230.282 764.149 230.282C763.682 230.282 763.278 230.391 762.938 230.611C762.598 230.823 762.333 231.124 762.142 231.514C761.958 231.896 761.866 232.346 761.866 232.862V239.5H758.765ZM771.955 239.5V227.956H775.056V239.5H771.955ZM773.505 226.331C773.038 226.331 772.638 226.168 772.305 225.843C771.972 225.51 771.806 225.117 771.806 224.664C771.806 224.196 771.972 223.8 772.305 223.474C772.638 223.149 773.038 222.986 773.505 222.986C773.98 222.986 774.38 223.149 774.705 223.474C775.038 223.8 775.204 224.196 775.204 224.664C775.204 225.117 775.038 225.51 774.705 225.843C774.38 226.168 773.98 226.331 773.505 226.331ZM777.668 243.302V227.956H780.769V229.857H780.897C781.102 229.418 781.371 229.043 781.704 228.731C782.044 228.413 782.44 228.172 782.893 228.009C783.347 227.839 783.846 227.754 784.391 227.754C785.361 227.754 786.196 227.995 786.897 228.476C787.598 228.951 788.136 229.634 788.511 230.526C788.894 231.418 789.085 232.484 789.085 233.723V233.733C789.085 234.979 788.897 236.048 788.522 236.941C788.147 237.833 787.609 238.519 786.908 239.001C786.214 239.475 785.382 239.712 784.412 239.712C783.874 239.712 783.375 239.627 782.915 239.458C782.462 239.281 782.062 239.036 781.715 238.725C781.375 238.413 781.102 238.038 780.897 237.599H780.769V243.302H777.668ZM783.35 237.142C783.881 237.142 784.338 237.004 784.72 236.728C785.109 236.452 785.407 236.059 785.612 235.549C785.825 235.04 785.931 234.434 785.931 233.733V233.723C785.931 233.015 785.825 232.406 785.612 231.896C785.407 231.386 785.109 230.997 784.72 230.728C784.338 230.459 783.881 230.324 783.35 230.324C782.826 230.324 782.366 230.462 781.969 230.738C781.58 231.007 781.279 231.397 781.067 231.907C780.854 232.409 780.748 233.015 780.748 233.723V233.733C780.748 234.434 780.854 235.04 781.067 235.549C781.286 236.059 781.591 236.452 781.98 236.728C782.37 237.004 782.826 237.142 783.35 237.142ZM800.81 239.744C799.755 239.744 798.855 239.596 798.112 239.298C797.376 239.001 796.799 238.587 796.381 238.056C795.963 237.525 795.715 236.912 795.638 236.218L795.627 236.155H798.664L798.686 236.218C798.799 236.622 799.029 236.944 799.376 237.185C799.73 237.426 800.215 237.546 800.831 237.546C801.227 237.546 801.567 237.496 801.85 237.397C802.141 237.291 802.364 237.146 802.519 236.962C802.682 236.778 802.764 236.562 802.764 236.314V236.293C802.764 235.988 802.643 235.737 802.403 235.539C802.169 235.34 801.765 235.178 801.192 235.05L799.248 234.647C798.505 234.484 797.885 234.257 797.39 233.967C796.901 233.67 796.533 233.301 796.285 232.862C796.038 232.423 795.914 231.917 795.914 231.344V231.333C795.914 230.604 796.112 229.97 796.508 229.432C796.912 228.887 797.475 228.466 798.197 228.168C798.919 227.864 799.765 227.712 800.735 227.712C801.755 227.712 802.619 227.871 803.327 228.19C804.035 228.501 804.58 228.922 804.962 229.453C805.344 229.984 805.55 230.572 805.578 231.216L805.589 231.291H802.711L802.7 231.227C802.636 230.866 802.434 230.558 802.095 230.303C801.762 230.041 801.309 229.91 800.735 229.91C800.374 229.91 800.059 229.96 799.79 230.059C799.521 230.158 799.312 230.303 799.163 230.494C799.015 230.678 798.94 230.898 798.94 231.153V231.163C798.94 231.361 798.99 231.538 799.089 231.694C799.195 231.85 799.365 231.984 799.599 232.098C799.833 232.211 800.144 232.31 800.533 232.395L802.477 232.809C803.659 233.064 804.52 233.443 805.058 233.946C805.596 234.441 805.865 235.114 805.865 235.964V235.985C805.865 236.735 805.649 237.394 805.217 237.96C804.785 238.526 804.19 238.965 803.433 239.277C802.675 239.589 801.801 239.744 800.81 239.744ZM812.587 239.638C811.242 239.638 810.261 239.383 809.646 238.873C809.03 238.357 808.722 237.51 808.722 236.335V230.292H807.033V227.956H808.722V225.173H811.854V227.956H814.106V230.292H811.854V235.804C811.854 236.328 811.971 236.703 812.205 236.93C812.446 237.156 812.817 237.27 813.32 237.27C813.483 237.27 813.625 237.266 813.745 237.259C813.865 237.252 813.986 237.241 814.106 237.227V239.511C813.929 239.546 813.709 239.574 813.448 239.596C813.186 239.624 812.899 239.638 812.587 239.638ZM819.501 239.681C818.758 239.681 818.096 239.535 817.515 239.245C816.942 238.955 816.492 238.548 816.166 238.024C815.848 237.5 815.688 236.895 815.688 236.208V236.187C815.688 235.493 815.862 234.898 816.209 234.402C816.556 233.9 817.062 233.507 817.727 233.224C818.4 232.933 819.214 232.76 820.17 232.703L824.567 232.438V234.349L820.637 234.604C820.007 234.64 819.529 234.781 819.204 235.029C818.885 235.27 818.726 235.599 818.726 236.017V236.038C818.726 236.463 818.892 236.799 819.225 237.047C819.558 237.295 819.993 237.418 820.531 237.418C820.998 237.418 821.416 237.326 821.784 237.142C822.16 236.951 822.453 236.696 822.666 236.378C822.878 236.059 822.984 235.698 822.984 235.294V231.705C822.984 231.195 822.822 230.799 822.496 230.515C822.17 230.232 821.696 230.091 821.073 230.091C820.499 230.091 820.039 230.197 819.692 230.409C819.352 230.622 819.129 230.908 819.023 231.269L819.012 231.344H816.156L816.166 231.227C816.237 230.533 816.481 229.924 816.899 229.4C817.324 228.869 817.901 228.455 818.63 228.158C819.366 227.86 820.23 227.712 821.221 227.712C822.227 227.712 823.091 227.871 823.813 228.19C824.535 228.501 825.091 228.951 825.48 229.538C825.87 230.119 826.064 230.809 826.064 231.609V239.5H822.984V237.886H822.857C822.652 238.254 822.383 238.576 822.05 238.852C821.717 239.121 821.335 239.327 820.903 239.468C820.478 239.61 820.011 239.681 819.501 239.681ZM833.297 239.638C831.951 239.638 830.971 239.383 830.355 238.873C829.739 238.357 829.431 237.51 829.431 236.335V230.292H827.742V227.956H829.431V225.173H832.564V227.956H834.815V230.292H832.564V235.804C832.564 236.328 832.681 236.703 832.914 236.93C833.155 237.156 833.527 237.27 834.029 237.27C834.192 237.27 834.334 237.266 834.454 237.259C834.574 237.252 834.695 237.241 834.815 237.227V239.511C834.638 239.546 834.419 239.574 834.157 239.596C833.895 239.624 833.608 239.638 833.297 239.638ZM840.837 239.744C839.987 239.744 839.269 239.574 838.681 239.234C838.093 238.888 837.647 238.392 837.343 237.748C837.038 237.096 836.886 236.318 836.886 235.411V227.956H839.987V234.742C839.987 235.528 840.157 236.13 840.497 236.548C840.837 236.965 841.364 237.174 842.079 237.174C842.448 237.174 842.773 237.114 843.056 236.994C843.347 236.866 843.591 236.693 843.789 236.473C843.987 236.247 844.136 235.978 844.235 235.666C844.341 235.348 844.395 234.997 844.395 234.615V227.956H847.496V239.5H844.395V237.663H844.267C844.083 238.088 843.828 238.459 843.502 238.778C843.184 239.089 842.802 239.33 842.355 239.5C841.909 239.663 841.403 239.744 840.837 239.744ZM854.739 239.744C853.684 239.744 852.784 239.596 852.041 239.298C851.305 239.001 850.728 238.587 850.31 238.056C849.892 237.525 849.644 236.912 849.567 236.218L849.556 236.155H852.593L852.615 236.218C852.728 236.622 852.958 236.944 853.305 237.185C853.659 237.426 854.144 237.546 854.76 237.546C855.156 237.546 855.496 237.496 855.779 237.397C856.07 237.291 856.293 237.146 856.448 236.962C856.611 236.778 856.693 236.562 856.693 236.314V236.293C856.693 235.988 856.572 235.737 856.332 235.539C856.098 235.34 855.694 235.178 855.121 235.05L853.177 234.647C852.434 234.484 851.814 234.257 851.319 233.967C850.83 233.67 850.462 233.301 850.214 232.862C849.967 232.423 849.843 231.917 849.843 231.344V231.333C849.843 230.604 850.041 229.97 850.437 229.432C850.841 228.887 851.404 228.466 852.126 228.168C852.848 227.864 853.694 227.712 854.664 227.712C855.684 227.712 856.547 227.871 857.255 228.19C857.964 228.501 858.509 228.922 858.891 229.453C859.273 229.984 859.479 230.572 859.507 231.216L859.518 231.291H856.64L856.629 231.227C856.565 230.866 856.363 230.558 856.024 230.303C855.691 230.041 855.238 229.91 854.664 229.91C854.303 229.91 853.988 229.96 853.719 230.059C853.45 230.158 853.241 230.303 853.092 230.494C852.944 230.678 852.869 230.898 852.869 231.153V231.163C852.869 231.361 852.919 231.538 853.018 231.694C853.124 231.85 853.294 231.984 853.528 232.098C853.761 232.211 854.073 232.31 854.462 232.395L856.406 232.809C857.588 233.064 858.448 233.443 858.987 233.946C859.525 234.441 859.794 235.114 859.794 235.964V235.985C859.794 236.735 859.578 237.394 859.146 237.96C858.714 238.526 858.119 238.965 857.362 239.277C856.604 239.589 855.73 239.744 854.739 239.744Z" fill="#20201F"/>
<g clip-path="url(#clip0_855_194)">
<path d="M430.488 116.485L463.477 120.051C462.854 131.151 460.002 141.936 458.185 152.869C457.869 154.762 456.632 155.287 454.701 155.226C443.748 154.884 432.796 154.63 421.834 154.341C422.545 150.18 423.353 145.922 424.265 141.577C426.126 132.719 428.232 124.344 430.488 116.485Z" fill="#7C93A1"/>
<path d="M430.488 116.485C428.583 129.031 426.679 141.577 424.775 154.114C415.902 153.93 407.021 153.754 398.148 153.57C401.904 132.614 404.853 117.265 405.432 115.951C405.818 115.084 406.468 114.61 406.468 114.61C407.064 114.181 407.705 114.076 408.144 114.041C415.595 114.856 423.046 115.662 430.497 116.477L430.488 116.485Z" fill="#9CAFBA"/>
<path d="M193.446 437.328C193.533 437.004 193.858 436.811 194.508 436.794C204.96 436.61 215.035 438.572 225.303 440.202C231.911 441.253 238.528 442.208 245.163 443.093C248.481 443.531 251.798 443.951 255.115 444.346C256.335 444.495 263.909 444.801 264.225 445.546C265.55 448.621 266.884 451.696 268.578 455.621C262.777 454.85 257.511 454.184 252.245 453.448C237.633 451.407 223.021 449.383 208.426 447.281C205.074 446.799 201.739 445.563 198.878 443.759C197.992 443.198 193.033 438.861 193.446 437.328Z" fill="#9CAFBA"/>
<path d="M453.727 352.566C451.603 354.353 451.278 356.973 451.559 359.295C452.7 368.677 442.397 373.295 435.999 371.884C430.83 370.745 425.547 370.798 420.413 370.57C408.214 370.018 396.059 368.844 383.851 368.38C368.625 367.801 353.407 366.671 338.189 365.708C324.139 364.823 310.08 363.955 296.02 363.219C289.947 362.904 283.892 362.177 277.845 361.494C275.607 361.239 274.273 362.063 273.501 364.06C273.738 363.456 272.711 361.073 272.58 360.337C272.334 358.9 272.193 357.437 272.193 355.974C272.176 353.179 272.623 350.385 273.554 347.748C274.528 344.979 276.046 342.403 278.012 340.222C279.083 339.039 279.987 337.445 281.443 336.665C284.059 335.281 284.076 339.32 284.691 340.818C286.481 345.233 293.502 343.84 297.144 343.84C303.936 343.84 310.843 343.464 317.592 343.945C324.981 344.471 332.362 344.988 339.752 345.514C358.26 346.819 376.813 347.783 395.313 349.097C406.187 349.868 417.051 350.867 427.942 351.296C433.384 351.506 438.842 351.585 444.284 351.41C446.399 351.34 449.075 350.499 450.98 350.542C451.155 350.542 455.447 351.138 453.762 352.557L453.727 352.566Z" fill="#FDCA02"/>
<path d="M468.286 272.772C465.926 275.119 466.382 278.107 466.382 280.998C466.382 290.696 463.003 294.017 453.174 294.026C433.489 294.026 413.875 292.212 394.181 291.975C380.385 291.809 366.554 290.854 352.723 290.346C339.05 289.847 325.403 288.62 311.695 288.681C309.852 288.681 307.824 288.305 306.183 287.499C302.594 285.72 300.338 286.097 299.733 290.451C299.68 290.372 299.61 290.267 299.522 290.127C298.952 289.172 298.732 288.235 298.636 287.464C298.469 286.167 298.636 285.405 298.829 283.206C298.89 282.479 298.978 281.401 299.031 280.078C299.154 279.421 299.268 278.764 299.391 278.107C299.434 277.809 299.487 277.511 299.531 277.213C300.83 268.89 304.753 262.434 312.651 258.798C312.616 259.954 312.669 261.119 312.528 262.267C312.054 265.947 313.397 268.216 317.276 268.645C318.724 268.803 320.172 269.145 321.62 269.153C336.391 269.25 351.117 270.301 365.869 270.888C391.864 271.922 417.868 272.798 443.88 273.49C451.673 273.691 459.721 275.207 467.084 271.011C467.479 271.606 467.883 272.193 468.277 272.789L468.286 272.772Z" fill="#FDCA02"/>
<path d="M462.371 108.303C449.795 106.375 437.219 104.448 424.643 102.52C422.15 92.822 419.667 83.1149 417.174 73.4165C426.819 74.6868 436.464 75.9747 446.118 77.21C448.092 77.464 449.593 78.0072 450.497 80.1449C454.473 89.5279 459.203 98.5691 462.371 108.311V108.303Z" fill="#7C93A1"/>
<path d="M418.192 73.6357C420.343 83.2639 422.493 92.8922 424.634 102.52C417.938 101.513 411.233 100.514 404.537 99.5067C404.458 99.5067 403.712 99.533 403.256 98.9548C403.019 98.6569 402.975 98.324 402.966 98.175C400.675 88.8446 398.385 79.5143 396.103 70.1926C403.466 71.3403 410.829 72.488 418.192 73.6444V73.6357Z" fill="#9CAFBA"/>
<path d="M427.144 45.6882C434.762 47.1163 442.388 48.4917 449.988 50.0161C452.217 50.4629 454.332 51.304 453.779 55.2727C453.279 58.8734 451.708 60.2927 448.9 59.8371C440.966 58.5493 433.024 57.2965 425.082 56.0261C425.766 52.5831 426.459 49.1313 427.144 45.6882Z" fill="#7C93A1"/>
<path d="M340.498 196.376C339.611 199.25 337.672 203.946 333.275 207.573C328.764 211.296 323.771 212.163 317.724 212.75C301.909 214.275 291.931 215.23 278.504 211.226C266.463 207.634 252.983 200.45 251.061 196.061C250.885 195.667 249.779 192.959 247.998 192.767C247.024 192.662 245.83 193.319 245.76 193.354C245.295 193.616 244.812 193.888 244.584 194.414C244.25 195.176 244.751 195.815 244.821 196.534C244.9 197.375 244.4 198.575 241.969 200.187C239.485 201.177 237.405 201.668 235.992 201.939C232.885 202.526 231.499 202.307 229.515 203.464C228.971 203.788 227.409 204.725 226.338 206.635C224.847 209.29 225.338 211.971 225.513 212.75C221.573 215.273 217.58 217.963 213.543 220.845C199.668 230.754 187.82 241.092 177.772 251.097C177.315 251.614 175.314 253.979 175.411 257.536C175.499 260.804 177.298 262.942 177.798 263.502C179.158 265.955 181.071 269.714 182.879 274.471C184.064 277.608 188.803 290.67 188.487 316.007C188.382 324.61 188.277 332.652 186.276 343.104C183.95 355.238 178.57 383.334 155.823 401.102C150.978 404.886 141.746 411.913 128.529 412.946C125.045 413.218 119.174 413.682 112.434 411.317C108.37 409.889 96.0663 404.659 91.2921 400.287C90.7918 399.831 89.7387 398.797 88.2468 398.736C87.0971 398.684 85.8333 399.367 83.3497 400.734C82.5862 401.154 81.9631 401.522 81.5506 401.767C81.4014 401.452 78.1455 394.68 71.0456 393.996C66.8594 393.593 62.1642 395.372 59.9176 398.806C59.1891 399.928 58.8644 400.988 58.6977 401.557C57.7762 404.694 58.373 407.541 59.2067 410.257C62.6294 421.366 69.7117 428.979 71.6073 430.959C72.362 431.739 72.9939 432.361 73.4152 432.755C69.5976 439.089 67.544 444.678 66.368 448.621C64.2003 455.91 60.8654 467.133 63.5245 480.003C64.525 484.839 65.9994 488.133 64.1037 491.155C61.585 495.176 55.1872 495.404 52.3438 495.474C39.7852 495.763 -0.883148 495.544 -55.7863 494.625C-64.6326 432.527 -65.6331 406.752 -64.2289 395.941C-63.9656 393.926 -62.3421 382.415 -61.2187 366.645C-60.6571 358.734 -60.4025 352.338 -60.2797 348.51C-44.1054 348.79 58.9171 350.56 61.0058 350.674C61.1023 350.674 61.7781 350.604 62.4802 350.954C62.9804 351.208 63.27 351.55 63.3139 351.602C64.0248 352.4 73.8715 356.254 84.5081 351.795C93.9512 347.844 98.7605 339.871 100.156 336.376C103.456 328.088 103.438 319.239 105.053 310.68C108.783 290.942 110.88 270.879 117.813 251.815C123.228 236.904 130.249 222.983 143.483 213.477C151.54 207.687 160.281 202.815 168.846 197.752C191.138 184.566 213.376 171.294 235.896 158.511C245.707 152.939 256.133 152.966 265.989 159.028C278.442 166.685 284.971 169.997 299.443 180.028C307.745 185.784 320.787 192.758 340.507 196.376H340.498Z" fill="#FDCA02"/>
<path d="M240.863 198.566C240.766 198.032 240.266 195.036 242.25 192.478C243.461 190.918 245.716 189.385 247.954 189.727C249.569 189.981 250.613 191.12 250.894 191.409C258.652 199.53 267.849 205.549 278.539 208.939C291.545 213.066 304.349 214.319 316.741 210.954C319.971 210.078 325.842 208.536 332.187 204.103C335.917 201.493 338.602 198.75 340.375 196.674C340.349 200.529 339.664 206.591 336.057 212.663C330.844 221.424 322.682 224.911 318.549 226.663C312.318 229.317 307.14 230.08 302.805 230.193C295.047 230.386 287.376 229.799 279.767 228.266C265.383 225.357 253.843 218.182 245.769 205.759C244.189 203.324 242.495 200.958 240.854 198.558L240.863 198.566Z" fill="#F69C05"/>
<path d="M304.885 519.313C303.094 519.357 300.058 519.418 296.293 519.497C265.884 520.18 219.95 519.917 171.716 519.225C151.11 518.936 131.969 512.917 116.006 499.075C111.46 495.124 107.888 490.314 104.535 485.329C102.991 483.043 101.393 480.721 99.4803 478.75C95.7242 474.886 90.0987 474.29 85.3508 476.928C81.3051 479.179 79.4972 483.244 80.7083 488.588C83.1305 499.259 89.5282 507.494 97.4179 514.722C98.8923 516.071 100.411 517.377 102.017 518.787C100.305 519.812 98.8133 519.523 97.3828 519.514C47.8155 519.471 -1.75181 519.392 -51.3191 519.392C-54.224 519.392 -55.8388 519.146 -55.83 515.502C-55.8125 508.546 -55.8125 501.59 -55.8037 494.633C-0.303757 495.527 40.6454 495.755 52.3352 495.483C55.1786 495.413 61.673 495.185 64.0951 491.164C65.7187 488.457 64.727 485.32 64.0513 482.561C59.6457 464.557 65.2711 448.016 66.491 445.169C68.764 439.851 71.6952 435.155 71.6952 435.155C72.371 434.157 72.9678 433.342 73.4066 432.764C77.8034 437.1 85.2718 443.356 96.0226 447.596C102.218 450.031 119.683 455.945 137.551 450.662C138.165 450.487 146.371 447.473 162.773 441.446C164.941 440.649 168.285 439.413 170.4 438.634C171.839 442.996 175.016 450.724 182.046 458.074C188.022 464.329 194.315 467.729 198.308 469.498C197.342 472.302 195.026 480.23 198.299 488.01C199.879 491.76 202.503 494.844 203.266 495.737C208.997 502.387 216.316 505.874 224.882 507.048C246.401 510.009 271.509 511.507 293.098 516.29C298.346 517.447 302.515 518.621 304.885 519.313Z" fill="#F69C05"/>
<path d="M162.782 489.946C157.165 489.14 151.566 488.212 145.993 487.16C136.901 485.452 127.177 483.174 119.972 477.015C112.1 470.278 106.738 460.869 102.429 451.6C101.867 450.382 100.84 448.595 101.771 447.114C102.657 445.704 103.965 447.114 105.018 447.324C117.006 449.637 128.994 450.986 141.017 447.71C142.158 447.394 142.983 447.342 143.404 448.98C145.379 456.655 149.943 463.681 155.278 469.472C158.956 473.467 163.598 476.498 167.1 480.66C169.856 483.927 172.787 491.322 165.178 490.279C164.379 490.174 163.581 490.06 162.782 489.946Z" fill="#FDCA02"/>
<path d="M482.346 192.889C487.313 199.232 486.971 212.286 481.354 220.434C474.702 230.08 465.311 234.513 453.613 234.162C443.986 233.873 434.349 233.479 424.722 233.295C401.939 232.874 379.157 232.559 356.374 232.165C355.242 232.147 353.548 232.165 353.1 231.499C352.196 230.15 353.846 229.256 354.619 228.275C358.779 222.939 361.683 216.921 364.228 210.7C366.028 210.017 367.897 209.816 369.81 209.929C379.955 210.508 390.109 211.603 400.246 211.533C415.411 211.428 430.541 212.347 445.671 212.838C452.411 213.057 459.282 212.934 466.084 214.047C470.437 214.757 474.921 213.627 478.379 209.894C483.013 204.883 481.389 199.408 480.319 193.862C480.713 192.951 481.652 193.17 482.355 192.898L482.346 192.889Z" fill="#F69C05"/>
<path d="M273.782 262.565C273.782 262.565 271.097 262.618 268.192 263.196C259.732 264.869 251.745 268.347 244.312 272.658C240.547 274.839 236.914 277.231 233.368 279.745C231.587 281.007 229.831 282.295 228.094 283.6C226.628 284.695 224.908 286.561 223.197 287.122C222.187 285.3 221.371 283.346 220.748 281.357C219.107 276.11 220.371 275.374 219.151 271.931C219.002 271.519 218.642 270.564 219.046 269.67C219.353 268.978 220.046 268.514 220.95 268.198C232.947 264.081 240.345 254.584 247.98 245.359C248.753 244.421 249.464 243.528 250.473 243.344C251.543 243.151 252.465 243.799 252.667 243.922C254.264 244.929 262.514 247.461 283.067 252.709C282.681 254.479 281.847 257.177 279.864 259.867C278.969 261.076 278.03 262.039 277.187 262.775C276.406 262.679 275.221 262.565 273.782 262.583V262.565Z" fill="#7C93A1"/>
<path d="M428.311 46.0738C427.232 49.4292 426.161 52.7759 425.081 56.1313C421.878 55.667 418.675 55.2114 415.472 54.7471C415.726 51.3041 415.981 47.861 416.235 44.418C420.263 44.9699 424.283 45.5218 428.311 46.0738Z" fill="#9CAFBA"/>
<path d="M484.057 251.43C487.98 256.678 492.096 261.575 494.527 267.62C503.996 291.152 496.633 315.525 475.527 329.42C472.736 331.26 472.288 332.285 474.237 335.255C490.586 360.259 483.478 391.842 458.018 407.664C455.447 409.267 454.666 410.354 456.421 413.236C475.079 443.794 455.21 482.815 423.748 491.883C419.369 493.144 414.972 494.213 410.452 494.397C408.039 494.494 406.863 495.571 405.599 497.358C400.948 503.885 396.314 510.438 391.338 516.711C384.773 524.982 375.945 529.178 365.501 527.233C356.356 525.534 348.967 527.128 341.025 532.227C326.913 541.286 311.081 545.044 294.011 545.009C175.85 544.764 57.6799 544.886 -60.4901 544.886C-74.4616 544.886 -80.9735 538.561 -80.9823 524.675C-81.0086 458.688 -80.9823 392.7 -80.9559 326.713C-80.9559 313.729 -74.5143 307.272 -61.5257 307.272C-20.8749 307.272 19.7847 307.264 60.4356 307.491C64.6305 307.518 65.7539 306.204 66.1839 302.314C67.9654 286.246 69.9488 270.179 73.6699 254.418C81.2349 222.344 100.507 199.469 128.503 182.561C157.051 165.31 184.793 146.72 212.938 128.795C214.824 127.595 215.29 126.061 215.588 124.125C217.089 114.33 219.019 104.58 220.108 94.741C222.24 75.4319 231.701 60.4332 246.646 48.6673C250.78 45.417 252.614 41.6323 253.395 36.6035C254.44 29.8576 255.396 23.0416 257.994 16.6111C262.663 5.04663 274.107 -1.56787 286.428 0.342011C326.132 6.50971 365.826 12.7212 405.529 18.8801C423.125 21.6136 440.765 24.1104 458.343 26.9665C471.841 29.1567 479.731 39.8363 478.809 53.4946C478.335 60.5208 476.738 67.3281 475.448 74.1791C474.658 78.3669 475.07 81.9588 477.335 85.3931C487.866 101.338 490.121 118.536 485.488 136.89C484.241 141.822 483.715 146.93 482.442 151.854C481.617 155.034 482.249 156.716 485.189 158.512C509.174 173.143 518.451 201.493 507.401 226.488C503.496 235.31 497.423 242.564 489.367 248.031C487.682 249.17 485.953 250.248 484.083 251.448L484.057 251.43ZM70.2384 429.452C67.0176 425.79 64.218 421.804 62.2259 417.467C60.3039 413.297 57.399 408.128 58.1977 403.371C58.4697 401.759 59.1893 400.27 59.909 398.807C60.9797 396.608 62.3049 395.644 64.4638 394.628C66.2365 393.804 68.1585 393.217 70.1331 393.243C74.3193 393.305 77.584 396.24 80.0238 399.367C80.4187 399.876 80.7961 400.392 81.1647 400.918C92.8456 428.217 122.07 433.57 142.808 426.281C160.448 420.078 172.611 407.2 182.818 392.289C198.176 369.852 204.635 344.874 203.424 317.794C202.854 305.021 200.739 292.598 195.675 280.797C192.902 274.34 189.005 268.865 181.923 266.376C180.457 265.86 179.211 264.729 177.868 263.88C174.867 259.543 174.691 254.996 176.885 250.283C181.247 246.314 186.171 245.876 191.541 247.873C194.569 249.004 197.562 250.23 200.019 252.324C201.625 253.691 202.801 253.84 204.556 252.56C213.894 245.797 223.293 239.139 232.71 232.48C234.281 231.368 234.974 230.343 233.421 228.669C228.998 223.903 226.137 218.191 223.53 212.322C223.39 210.596 223.135 208.87 223.127 207.135C223.091 199.671 228.98 194.87 236.08 196.631C237.73 197.042 239.266 197.91 240.846 198.567C242.487 200.967 244.18 203.333 245.76 205.768C253.834 218.191 265.375 225.367 279.759 228.275C287.359 229.808 295.038 230.404 302.796 230.203C315.627 229.878 325.824 224.359 333.565 214.424C335.715 211.664 337.663 208.51 338.795 205.19C340.05 201.519 340.314 197.156 340.472 193.31C340.612 189.841 340.454 186.161 338.673 183.078C336.628 179.556 332.951 177.514 329.133 176.428C324.604 175.14 320.374 173.239 316.179 171.206C302.655 164.645 290.43 155.857 277.424 148.428C261.18 139.141 244.997 137.783 228.41 148.551C197.983 168.315 167.214 187.563 136.577 207.012C129.196 211.699 121.842 216.395 115.936 222.975C105.79 234.276 100.612 247.952 97.8392 262.522C93.8637 283.39 90.5551 304.373 87.501 325.399C86.0705 335.299 76.6713 339.679 68.1848 334.563C65.9118 333.196 63.7266 332.732 61.1903 332.723C41.3213 332.679 21.4434 332.592 1.57436 332.478C-16.2499 332.381 -34.0829 332.679 -51.9071 331.908C-53.6009 331.838 -55.9265 330.962 -55.8037 334.282C-55.6106 339.662 -55.6018 345.05 -55.5141 350.438C-55.593 351.156 -55.7422 351.883 -55.7422 352.602C-55.7598 406.902 -55.7335 461.193 -55.8476 515.494C-55.8476 519.138 -54.2415 519.383 -51.3454 519.383C-1.7781 519.383 47.7892 519.462 97.3565 519.515C98.787 519.515 100.288 519.804 101.99 518.788C100.384 517.368 98.866 516.072 97.3916 514.723C89.502 507.495 83.1042 499.259 80.682 488.589C79.4709 483.245 81.2787 479.179 85.3333 476.928C90.0724 474.291 95.7066 474.887 99.4628 478.75C101.376 480.721 102.973 483.043 104.509 485.33C107.862 490.315 111.433 495.124 115.988 499.075C131.952 512.918 151.084 518.937 171.699 519.234C213.218 519.83 254.747 519.488 296.275 519.506C297.96 519.506 299.786 519.672 301.207 518.42C298.109 519.112 295.907 516.659 293.072 516.291C270.316 513.373 247.594 510.176 224.864 507.048C216.299 505.874 208.971 502.387 203.249 495.738C197.852 489.465 195.421 482.184 195.377 474.01C195.368 471.636 195.263 469.577 192.48 468.307C181.976 463.524 174.446 455.578 169.917 445.091C168.215 441.157 166.916 440.859 163.432 443.067C141.755 456.778 118.928 457.409 95.3732 448.542C90.5463 446.729 86.1846 443.925 82.1827 440.693C78.0316 437.346 73.8542 433.605 70.2121 429.461L70.2384 429.452ZM427.162 47.1604C395.901 42.3244 364.606 37.6986 333.345 32.8889C318.356 30.5847 303.384 28.1404 288.403 25.7838C284.033 25.1004 280.698 26.8701 280.206 30.1642C279.522 34.7812 283.023 34.8075 286.051 35.3156C325.982 42.0178 366.142 47.2743 406.248 52.7587C420.457 54.7036 434.665 56.6748 448.9 58.5058C451.717 58.865 453.279 57.7436 453.78 54.8963C454.333 51.7599 452.217 51.0941 449.988 50.7436C442.379 49.5346 434.779 48.3519 427.171 47.1692L427.162 47.1604ZM418.245 76.2204C401.307 73.8462 384.291 71.4194 367.37 68.9226C346.992 65.9176 326.623 62.7987 306.289 59.4432C303.445 58.9702 300.602 58.4971 297.758 58.0152C294.099 57.402 290.439 56.7712 286.788 56.1229C276.002 54.2217 268.85 56.6135 262.505 64.9276C257.704 71.2267 250.894 76.1416 248.744 84.2367C246.225 93.681 245.084 103.397 243.364 112.999C242.943 115.329 243.917 115.61 245.953 115.443C249.578 115.145 253.237 114.944 256.871 115.031C272.676 115.399 285.691 122.794 297.802 131.931C311.151 141.997 324.982 151.004 341.2 155.857C342.876 156.357 344.096 156.409 345.693 155.612C352.188 152.37 359.059 150.881 366.396 151.083C377.191 151.38 388.003 151.337 398.806 151.433C407.275 152.292 415.762 152.265 424.257 152.081C433.99 152.353 443.722 152.598 453.455 152.914C455.175 152.966 456.272 152.467 456.553 150.697C458.141 140.578 460.046 130.529 461.511 120.384C463.398 107.339 454.21 94.2767 449.181 82.651C447.821 79.5058 443.371 79.7073 440.563 79.3218C433.147 78.2968 425.705 77.2717 418.245 76.2204ZM364.711 208.992C364.553 209.562 364.386 210.131 364.228 210.701C361.692 216.921 358.787 222.931 354.619 228.275C353.855 229.256 352.205 230.15 353.1 231.499C353.539 232.165 355.242 232.147 356.374 232.165C379.157 232.559 401.939 232.875 424.722 233.295C434.358 233.47 443.985 233.873 453.613 234.162C465.303 234.513 474.693 230.08 481.354 220.434C486.971 212.295 487.313 199.233 482.346 192.898C479.687 184.418 472.06 179.109 461.029 178.627C438.29 177.628 415.551 176.787 392.803 175.999C384.492 175.71 376.173 175.657 367.862 175.718C363.834 175.745 363 177.383 364.255 181.194C365.124 183.805 365.703 186.512 366.405 189.184C366.519 195.395 365.913 201.554 365.159 207.704C365.001 208.134 364.852 208.572 364.694 209.001L364.711 208.992ZM434.148 425.037C432.752 422.706 430.9 420.665 428.531 419.097C419.606 413.192 405.941 414.48 395.708 413.753C383.158 412.859 370.6 411.983 358.041 411.125C349.3 410.52 340.551 409.924 331.81 409.32C324.122 408.794 316.258 407.822 308.562 408.689C301.339 409.504 293.871 411.834 289.728 418.186C285.683 424.397 285.533 432.352 287.543 439.3C290.079 450.4 299.408 458.136 310.396 458.793C333.258 460.168 356.076 462.096 378.867 464.295C385.589 464.943 392.303 465.591 399.043 466.056C405.195 466.476 411.926 467.527 417.938 465.836C427.627 463.112 435.683 454.614 437.263 444.609C438.281 438.161 437.553 430.732 434.13 425.028L434.148 425.037ZM299.435 289.777C301.655 300.474 312.011 309.287 322.937 309.717C342.929 310.505 362.912 311.294 382.904 312.117C403.765 312.985 424.617 314.124 445.486 314.719C456.175 315.026 464.495 309.927 469.41 300.544C474.245 291.319 474.096 281.804 468.286 272.763C467.892 272.167 467.488 271.58 467.093 270.985C462.951 263.897 456.737 260.095 448.575 259.657C432.831 258.816 417.087 258.036 401.342 257.37C377.577 256.354 353.802 255.434 330.037 254.523C323.867 254.286 317.724 254.391 312.66 258.781C309.676 260.156 307.254 261.935 305.332 264.064C300.049 269.916 298.776 278.624 299.013 286.194C299.048 287.403 299.198 288.594 299.435 289.759V289.777ZM283.883 335.658C283.252 336.026 282.62 336.429 281.997 336.867C273.229 342.982 270.263 353.924 273.493 363.982C276.459 374.53 287.052 383.344 297.951 384.264C327.544 386.76 357.234 387.838 386.88 389.573C400.983 390.396 415.077 391.369 429.198 391.763C451.068 392.376 462.687 367.583 452.551 349.64C449.12 343.569 443.266 339.241 436.201 338.672C421.361 337.48 406.477 336.814 391.601 336.008C377.015 335.22 362.421 334.44 347.826 333.827C336.154 333.336 324.508 332.311 312.836 331.812C302.682 331.374 292.782 330.454 283.883 335.658ZM223.899 286.36C225.013 290.451 225.952 294.587 226.76 298.809C227.48 302.559 228.05 306.326 228.48 310.12C229.314 317.54 229.559 325.031 229.182 332.486C228.419 347.476 225.049 362.247 219.485 376.177C218.765 377.982 218.01 379.769 217.22 381.539C210.954 395.609 202.213 408.137 192.138 419.754C183.74 429.435 201.485 445.064 210.182 446.405C223.837 448.507 237.511 450.54 251.184 452.572C256.107 453.308 261.039 453.974 266.463 454.745C264.874 450.82 263.637 447.745 262.391 444.67C258.959 428.839 260.425 413.911 270.737 400.699C272.088 398.964 271.483 398.631 269.877 397.65C252.491 387.049 244.479 371.192 246.173 351.252C247.858 331.348 259.047 317.68 277.494 310.041C279.513 309.2 280.338 308.797 279.057 306.484C271.378 292.633 270.509 278.265 276.275 263.512C278.153 260.156 280.039 256.801 282.102 253.121C271.369 251.982 261.548 249.345 252.684 243.913C250.306 242.459 249.235 243.852 247.998 245.35C240.354 254.575 232.956 264.072 220.968 268.19C217.896 269.241 219.142 271.782 219.985 274.051C221.494 278.125 222.793 282.216 223.916 286.36H223.899ZM378.533 495.501C325.122 487.678 272.65 479.994 219.502 472.214C222.258 478.496 225.584 482.465 232.078 483.411C258.81 487.301 285.498 491.515 312.239 495.405C329.282 497.893 346.211 501.196 363.386 502.79C369.512 503.36 374.014 500.784 378.533 495.492V495.501Z" fill="#050307"/>
<path d="M81.1645 400.918C82.9285 398.973 85.535 396.765 88.5189 396.966C91.0025 397.133 92.5383 399.016 93.9162 400.12C103.877 408.102 115.163 412.018 127.897 411.326C137.779 410.791 146.862 407.296 154.199 400.874C171.488 385.744 179.913 365.769 183.827 343.604C185.161 336.043 186.135 328.474 186.548 320.773C187.381 305.099 183.634 290.25 179.509 275.409C178.465 271.65 177.219 267.892 177.859 263.879C179.211 264.729 180.457 265.868 181.914 266.376C188.987 268.864 192.893 274.34 195.666 280.797C200.73 292.597 202.845 305.02 203.415 317.794C204.618 344.874 198.167 369.843 182.809 392.288C172.603 407.199 160.448 420.087 142.799 426.281C122.061 433.57 92.8367 428.208 81.1558 400.918H81.1645Z" fill="#F69C05"/>
<path d="M453.727 352.514C462.968 370.325 449.47 392.332 429.189 391.763C410.364 391.237 391.557 389.748 372.741 388.74C347.799 387.408 322.84 386.366 297.942 384.263C287.051 383.343 276.45 374.53 273.483 363.982C274.256 361.984 275.598 361.169 277.828 361.424C283.874 362.098 289.93 362.825 296.003 363.141C310.071 363.877 324.121 364.735 338.172 365.62C353.381 366.575 368.607 367.696 383.834 368.275C396.041 368.739 408.196 369.913 420.395 370.456C425.529 370.684 430.812 370.631 435.981 371.77C442.379 373.172 452.682 368.572 451.541 359.225C451.261 356.903 451.585 354.301 453.709 352.514H453.727Z" fill="#F69C05"/>
<path d="M468.286 272.771C474.096 281.813 474.245 291.327 469.41 300.552C464.495 309.935 456.175 315.034 445.486 314.728C424.617 314.132 403.765 312.993 382.904 312.126C362.921 311.293 342.929 310.514 322.937 309.725C317.197 309.497 311.66 306.86 307.395 303.102C304.016 300.123 298.329 293.561 300.137 288.62C300.435 287.796 301.014 287.052 301.822 286.71C303.235 286.114 304.92 286.868 306.192 287.499C307.833 288.313 309.852 288.69 311.704 288.681C325.412 288.62 339.059 289.847 352.732 290.346C366.554 290.854 380.385 291.8 394.19 291.975C413.884 292.221 433.498 294.034 453.183 294.025C463.012 294.025 466.4 290.696 466.391 280.998C466.391 278.107 465.935 275.119 468.295 272.771H468.286Z" fill="#F69C05"/>
<path d="M287.56 439.308C283.962 426.894 288.14 415.557 297.908 411.273C298.425 411.045 299.022 410.984 299.575 410.853C298.908 416.214 302.383 418.054 306.701 418.991C315.012 420.779 323.516 420.936 331.941 421.532C354.522 423.118 377.103 424.774 399.719 425.702C411.11 426.167 422.651 429.434 433.989 425.133C438.114 431.117 437.754 437.854 437.28 444.617C435.955 443.837 434.613 443.995 433.094 444.1C428.32 444.442 423.95 446.825 419.026 446.466C409.03 445.73 399.017 445.283 389.021 444.661C379.894 444.092 370.74 443.68 361.648 442.777C346.194 441.244 330.677 440.535 315.214 439.255C308.132 438.669 300.979 439.159 293.932 437.819C291.791 437.416 289.21 436.837 287.56 439.299V439.308Z" fill="#FDCA02"/>
<path d="M287.561 439.308C289.21 436.846 291.791 437.416 293.932 437.827C300.979 439.168 308.123 438.686 315.214 439.264C330.677 440.543 346.194 441.253 361.648 442.786C370.749 443.688 379.894 444.1 389.021 444.67C399.026 445.292 409.039 445.739 419.026 446.474C423.95 446.834 428.32 444.459 433.094 444.109C434.604 444.004 435.947 443.837 437.281 444.626C435.341 456.891 423.546 467.124 410.707 466.765C400.079 466.467 389.468 465.328 378.876 464.312C356.075 462.113 333.266 460.185 310.405 458.81C299.417 458.153 290.088 450.408 287.552 439.317L287.561 439.308Z" fill="#F69C05"/>
<path d="M480.319 193.853C481.389 199.399 483.013 204.874 478.379 209.886C474.921 213.618 470.437 214.748 466.084 214.038C459.282 212.926 452.411 213.048 445.671 212.829C430.541 212.339 415.411 211.419 400.246 211.524C390.1 211.594 379.955 210.499 369.81 209.921C367.897 209.807 366.028 210.017 364.229 210.692C364.386 210.122 364.553 209.553 364.711 208.983C364.869 208.554 365.018 208.116 365.176 207.687C365.931 201.536 366.537 195.378 366.423 189.166C377.331 189.622 388.249 190.051 399.157 190.559C415.885 191.33 432.603 192.337 449.339 192.889C459.668 193.231 469.963 194.72 480.327 193.853H480.319Z" fill="#FDCA02"/>
<path d="M378.533 495.501C374.014 500.792 369.512 503.368 363.386 502.799C346.211 501.195 329.282 497.892 312.239 495.413C285.507 491.514 258.819 487.309 232.078 483.419C225.584 482.473 222.258 478.504 219.502 472.223C272.65 480.003 325.131 487.686 378.533 495.509V495.501Z" fill="#9CAFBA"/>
<path d="M176.885 250.274C176.587 249.765 176.28 249.257 175.981 248.749C175.815 248.416 175.595 247.873 175.525 247.19C174.841 240.724 188.865 235.424 204.504 225.804C209.339 222.834 215.992 218.419 223.548 212.312C226.154 218.182 229.015 223.894 233.438 228.66C234.983 230.325 234.298 231.359 232.728 232.471C223.32 239.13 213.912 245.788 204.574 252.551C202.819 253.822 201.634 253.673 200.037 252.315C197.579 250.221 194.587 248.995 191.559 247.864C186.188 245.867 181.265 246.305 176.903 250.274H176.885Z" fill="#F69C05"/>
</g>
<defs>
<filter id="filter0_d_855_194" x="583.678" y="444.964" width="134.143" height="65.0356" filterUnits="userSpaceOnUse" color-interpolation-filters="sRGB">
<feFlood flood-opacity="0" result="BackgroundImageFix"/>
<feColorMatrix in="SourceAlpha" type="matrix" values="0 0 0 0 0 0 0 0 0 0 0 0 0 0 0 0 0 0 127 0" result="hardAlpha"/>
<feOffset dy="6"/>
<feGaussianBlur stdDeviation="3"/>
<feComposite in2="hardAlpha" operator="out"/>
<feColorMatrix type="matrix" values="0 0 0 0 0.124902 0 0 0 0 0.124902 0 0 0 0 0.123252 0 0 0 0.15 0"/>
<feBlend mode="normal" in2="BackgroundImageFix" result="effect1_dropShadow_855_194"/>
<feBlend mode="normal" in="SourceGraphic" in2="effect1_dropShadow_855_194" result="shape"/>
</filter>
<filter id="filter1_d_855_194" x="716" y="579.8" width="187.582" height="64.2" filterUnits="userSpaceOnUse" color-interpolation-filters="sRGB">
<feFlood flood-opacity="0" result="BackgroundImageFix"/>
<feColorMatrix in="SourceAlpha" type="matrix" values="0 0 0 0 0 0 0 0 0 0 0 0 0 0 0 0 0 0 127 0" result="hardAlpha"/>
<feOffset dy="6"/>
<feGaussianBlur stdDeviation="3"/>
<feComposite in2="hardAlpha" operator="out"/>
<feColorMatrix type="matrix" values="0 0 0 0 0.124902 0 0 0 0 0.124902 0 0 0 0 0.123252 0 0 0 0.15 0"/>
<feBlend mode="normal" in2="BackgroundImageFix" result="effect1_dropShadow_855_194"/>
<feBlend mode="normal" in="SourceGraphic" in2="effect1_dropShadow_855_194" result="shape"/>
</filter>
<filter id="filter2_d_855_194" x="613" y="264" width="253.623" height="82.541" filterUnits="userSpaceOnUse" color-interpolation-filters="sRGB">
<feFlood flood-opacity="0" result="BackgroundImageFix"/>
<feColorMatrix in="SourceAlpha" type="matrix" values="0 0 0 0 0 0 0 0 0 0 0 0 0 0 0 0 0 0 127 0" result="hardAlpha"/>
<feOffset dy="6"/>
<feGaussianBlur stdDeviation="3"/>
<feComposite in2="hardAlpha" operator="out"/>
<feColorMatrix type="matrix" values="0 0 0 0 0.124902 0 0 0 0 0.124902 0 0 0 0 0.123252 0 0 0 0.15 0"/>
<feBlend mode="normal" in2="BackgroundImageFix" result="effect1_dropShadow_855_194"/>
<feBlend mode="normal" in="SourceGraphic" in2="effect1_dropShadow_855_194" result="shape"/>
</filter>
<clipPath id="clip0_855_194">
<rect width="593" height="545" fill="white" transform="translate(-81)"/>
</clipPath>
</defs>
</svg>
