<svg width="35" height="34" viewBox="0 0 35 34" fill="none" xmlns="http://www.w3.org/2000/svg">
<g id="Logo">
<path id="Vector" d="M30.2844 0H20.8563L16.1417 7.98652L20.8563 15.974H30.2844L35 7.98652L30.2844 0ZM29.9717 7.1427L27.9884 3.7895H24.1464V1.9053H29.0992L31.6403 6.19821L29.9727 7.1427H29.9717Z" fill="#242423"/>
<path id="Vector_2" d="M14.1427 8.91089H4.71457L0 16.8984L4.71457 24.8849H14.1427L18.8573 16.8984L14.1427 8.91089ZM13.83 16.0545L11.8457 12.7023H8.0037V10.8181H12.9575L15.4986 15.1101L13.831 16.0545H13.83Z" fill="#242423"/>
<path id="Vector_3" d="M30.2844 18.027H20.8563L16.1417 26.0135L20.8563 34H30.2844L35 26.0135L30.2844 18.027ZM29.9717 25.1697L27.9884 21.8165H24.1464V19.9323H29.0992L31.6403 24.2252L29.9727 25.1697H29.9717Z" fill="#242423"/>
</g>
</svg>
