<svg width="122" height="33" viewBox="0 0 122 33" fill="none" xmlns="http://www.w3.org/2000/svg">
<path d="M16.4401 6.75H11.322L8.76264 11.2131L11.322 15.6766H16.4401L19 11.2131L16.4401 6.75ZM16.2704 10.7415L15.1937 8.86766H13.108V7.81472H15.7967L17.1762 10.2137L16.2709 10.7415H16.2704Z" fill="#FBFBFB"/>
<path d="M7.67749 11.7295H2.55934L0 16.1931L2.55934 20.6561H7.67749L10.2368 16.1931L7.67749 11.7295ZM7.50772 15.7215L6.43055 13.8482H4.34486V12.7953H7.03406L8.41352 15.1937L7.50825 15.7215H7.50772Z" fill="#FBFBFB"/>
<path d="M16.4401 16.8237H11.322L8.76264 21.2868L11.322 25.7498H16.4401L19 21.2868L16.4401 16.8237ZM16.2704 20.8152L15.1937 18.9414H13.108V17.8885H15.7967L17.1762 20.2874L16.2709 20.8152H16.2704Z" fill="#FBFBFB"/>
<path d="M26.6123 26V23.0337H32.0176C33.1602 23.0337 34.0347 22.8052 34.6411 22.3481C35.2476 21.8823 35.5508 21.21 35.5508 20.3311V20.3047C35.5508 19.7246 35.4102 19.2368 35.1289 18.8413C34.8564 18.437 34.4434 18.1338 33.8896 17.9316C33.3447 17.7295 32.668 17.6284 31.8594 17.6284H26.6123V14.9258H31.3848C32.501 14.9258 33.3535 14.7017 33.9424 14.2534C34.5312 13.8052 34.8257 13.168 34.8257 12.3418V12.3154C34.8257 11.5596 34.5664 10.9751 34.0479 10.562C33.5293 10.1401 32.8042 9.9292 31.8726 9.9292H26.6123V6.97607H32.9009C34.0962 6.97607 35.1289 7.16943 35.999 7.55615C36.8779 7.94287 37.5547 8.49658 38.0293 9.21729C38.5039 9.9292 38.7412 10.7729 38.7412 11.7485V11.7749C38.7412 12.4692 38.5786 13.1152 38.2534 13.7129C37.937 14.3018 37.502 14.7939 36.9482 15.1895C36.3945 15.5762 35.7705 15.8179 35.0762 15.9146V16.0068C35.9551 16.0684 36.7373 16.3057 37.4229 16.7188C38.1084 17.123 38.6445 17.6592 39.0312 18.3271C39.4268 18.9863 39.6245 19.729 39.6245 20.5552V20.5815C39.6245 21.689 39.3564 22.647 38.8203 23.4556C38.2842 24.2642 37.5239 24.8926 36.5396 25.3408C35.564 25.7803 34.3994 26 33.0459 26H26.6123ZM24.6216 26V6.97607H28.603V26H24.6216ZM46.4404 26.29C45.4033 26.29 44.52 26.0791 43.7905 25.6572C43.061 25.2354 42.5073 24.6289 42.1294 23.8379C41.7515 23.0381 41.5625 22.0889 41.5625 20.9902V11.854H45.4121V20.186C45.4121 21.1089 45.6274 21.8252 46.0581 22.335C46.4888 22.8447 47.1392 23.0996 48.0093 23.0996C48.4399 23.0996 48.8267 23.0249 49.1694 22.8755C49.521 22.7261 49.8198 22.5151 50.0659 22.2427C50.312 21.9614 50.501 21.6318 50.6328 21.2539C50.7646 20.8672 50.8306 20.4453 50.8306 19.9883V11.854H54.6802V26H50.8306V23.6797H50.7383C50.501 24.2158 50.1802 24.6816 49.7759 25.0771C49.3804 25.4639 48.9014 25.7627 48.3389 25.9736C47.7852 26.1846 47.1523 26.29 46.4404 26.29ZM56.9741 26V23.8115L64.0933 14.8335V14.7544H57.0796V11.854H68.4966V14.293L61.8125 23.0205V23.0996H68.668V26H56.9741ZM70.6851 26V23.8115L77.8042 14.8335V14.7544H70.7905V11.854H82.2075V14.293L75.5234 23.0205V23.0996H82.3789V26H70.6851ZM90.8296 26.29C89.3882 26.29 88.1445 25.9956 87.0986 25.4067C86.0615 24.8091 85.2617 23.9609 84.6992 22.8623C84.1455 21.7637 83.8687 20.4585 83.8687 18.9468V18.9336C83.8687 17.4395 84.1455 16.1387 84.6992 15.0312C85.2617 13.9238 86.0527 13.0713 87.0723 12.4736C88.0918 11.8672 89.2915 11.564 90.6714 11.564C92.0513 11.564 93.2466 11.8584 94.2573 12.4473C95.2681 13.0273 96.0459 13.8535 96.5908 14.9258C97.1357 15.9893 97.4082 17.2329 97.4082 18.6567V19.8433H85.7671V17.4175H95.5889L93.7695 19.6851V18.1953C93.7695 17.3691 93.6377 16.6792 93.374 16.1255C93.1191 15.563 92.7632 15.1411 92.3062 14.8599C91.8579 14.5786 91.335 14.438 90.7373 14.438C90.1396 14.438 89.6079 14.583 89.1421 14.873C88.6851 15.1631 88.3247 15.5894 88.061 16.1519C87.7974 16.7144 87.6655 17.3955 87.6655 18.1953V19.6982C87.6655 20.4805 87.7974 21.1484 88.061 21.7021C88.3247 22.2559 88.6982 22.6821 89.1816 22.981C89.665 23.271 90.2407 23.416 90.9087 23.416C91.436 23.416 91.8931 23.3369 92.2798 23.1787C92.6665 23.0117 92.9829 22.8008 93.229 22.5459C93.4751 22.291 93.6421 22.0317 93.73 21.7681L93.7563 21.689H97.2896L97.2632 21.834C97.1489 22.3525 96.938 22.8755 96.6304 23.4028C96.3315 23.9214 95.9185 24.4004 95.3911 24.8398C94.8726 25.2793 94.2354 25.6309 93.4795 25.8945C92.7236 26.1582 91.8403 26.29 90.8296 26.29ZM99.4517 26V11.854H103.301V14.3062H103.394C103.604 13.436 103.987 12.7637 104.541 12.2891C105.103 11.8057 105.797 11.564 106.624 11.564C106.843 11.564 107.05 11.5771 107.243 11.6035C107.437 11.6299 107.608 11.6694 107.757 11.7222V15.0972C107.59 15.0356 107.379 14.9873 107.125 14.9521C106.878 14.9082 106.615 14.8862 106.333 14.8862C105.701 14.8862 105.156 15.0093 104.699 15.2554C104.242 15.5015 103.895 15.8618 103.657 16.3364C103.42 16.811 103.301 17.3911 103.301 18.0767V26H99.4517ZM115.153 26.29C113.853 26.29 112.741 26.1055 111.818 25.7363C110.904 25.3584 110.192 24.8354 109.682 24.1675C109.172 23.4907 108.865 22.7085 108.759 21.8208L108.746 21.7021H112.503L112.53 21.8208C112.653 22.3657 112.93 22.7964 113.36 23.1128C113.791 23.4204 114.389 23.5742 115.153 23.5742C115.646 23.5742 116.063 23.5127 116.406 23.3896C116.757 23.2666 117.025 23.0952 117.21 22.8755C117.395 22.6558 117.487 22.3921 117.487 22.0845V22.0713C117.487 21.6934 117.351 21.3901 117.078 21.1616C116.806 20.9243 116.322 20.731 115.628 20.5815L113.229 20.0674C112.314 19.874 111.55 19.5972 110.935 19.2368C110.319 18.8677 109.858 18.415 109.55 17.8789C109.251 17.334 109.102 16.71 109.102 16.0068V15.9937C109.102 15.0884 109.344 14.3062 109.827 13.647C110.311 12.9878 110.996 12.478 111.884 12.1177C112.78 11.7485 113.826 11.564 115.021 11.564C116.278 11.564 117.342 11.7661 118.212 12.1704C119.091 12.5659 119.763 13.1021 120.229 13.7788C120.695 14.4468 120.941 15.1938 120.967 16.02L120.98 16.1519H117.434L117.421 16.0464C117.359 15.5454 117.122 15.1279 116.709 14.7939C116.296 14.4512 115.733 14.2798 115.021 14.2798C114.582 14.2798 114.2 14.3413 113.875 14.4644C113.549 14.5874 113.299 14.7632 113.123 14.9917C112.947 15.2114 112.859 15.4751 112.859 15.7827V15.7959C112.859 16.042 112.917 16.2617 113.031 16.4551C113.154 16.6396 113.356 16.8022 113.637 16.9429C113.918 17.0835 114.296 17.2065 114.771 17.312L117.17 17.813C118.656 18.1294 119.719 18.5952 120.361 19.2104C121.011 19.8169 121.336 20.6431 121.336 21.689V21.7021C121.336 22.625 121.073 23.4292 120.545 24.1147C120.027 24.8003 119.302 25.3364 118.37 25.7231C117.438 26.1011 116.366 26.29 115.153 26.29Z" fill="#FBFBFB"/>
</svg>
