<svg width="390" height="300" viewBox="0 0 390 300" fill="none" xmlns="http://www.w3.org/2000/svg">
<g clip-path="url(#clip0_8_53)">
<path d="M264.693 298.545C264.313 298.869 263.921 299.186 263.524 299.498H215.396C215.12 299.186 214.844 298.869 214.572 298.545C212.349 295.88 210.393 293.004 208.731 289.958C204.78 282.841 203.418 273.509 203.418 264.006C203.418 263.425 203.422 262.845 203.434 262.264C203.478 259.598 203.627 256.928 203.847 254.302C203.887 253.846 203.927 253.393 203.971 252.941C204.327 249.174 204.828 245.507 205.396 242.08C205.468 241.644 205.54 241.212 205.616 240.783C206.775 233.977 208.328 227.245 210.268 220.619C210.268 220.619 210.332 220.635 210.456 220.667C210.812 220.767 211.665 221.003 212.918 221.376C216.369 222.401 222.85 224.466 230.325 227.537C230.733 227.701 231.145 227.873 231.562 228.049C237.885 230.656 244.006 233.729 249.873 237.244C250.237 237.465 250.597 237.689 250.958 237.913V237.945L250.169 263.473L257.215 242.22C258.652 243.313 260.025 244.446 261.334 245.619C261.695 245.939 262.055 246.268 262.403 246.608C265.377 249.334 267.916 252.5 269.929 255.995C280.47 274.998 276.047 288.969 264.693 298.545Z" fill="#F2F2F2"/>
<path d="M257.908 299.498H256.626C256.618 299.182 256.607 298.865 256.586 298.545C256.07 288.941 251.951 278.337 246.342 268.101C246.142 267.729 245.938 267.348 245.722 266.976C242.999 262.108 239.965 257.344 236.83 252.817C236.59 252.464 236.342 252.108 236.093 251.756C231.922 245.803 227.615 240.295 223.723 235.591C223.451 235.255 223.171 234.927 222.895 234.602C217.126 227.685 212.366 222.645 210.456 220.667C210.172 220.375 209.952 220.151 209.8 219.995C209.66 219.843 209.576 219.763 209.56 219.746L210.008 219.298L210.012 219.286L210.468 218.838C210.484 218.858 210.76 219.122 211.249 219.63C211.661 220.051 212.226 220.639 212.918 221.376C215.336 223.938 219.336 228.297 223.963 233.826C224.232 234.146 224.508 234.478 224.784 234.81C227.943 238.626 231.365 242.949 234.756 247.597C235.609 248.766 236.436 249.925 237.238 251.075C237.491 251.428 237.739 251.78 237.979 252.132C241.37 257.024 244.331 261.729 246.863 266.247L247.495 267.38C253.948 279.15 257.423 289.574 257.872 298.545C257.887 298.865 257.9 299.182 257.908 299.498Z" fill="#FBFBFB"/>
<path d="M231.029 226.6C230.801 226.916 230.569 227.228 230.325 227.537C228.489 229.903 226.35 232.017 223.963 233.826C223.615 234.082 223.259 234.346 222.895 234.602C221.901 235.296 220.872 235.937 219.812 236.524C215.445 238.956 210.601 240.409 205.616 240.783C205.456 240.799 205.292 240.811 205.132 240.819C205.06 241.248 204.992 241.676 204.916 242.112C205.076 242.104 205.236 242.096 205.396 242.08C210.676 241.736 215.814 240.223 220.437 237.649C221.568 237.021 222.665 236.335 223.723 235.591C224.083 235.339 224.436 235.075 224.784 234.81C227.337 232.872 229.617 230.597 231.562 228.049C231.794 227.741 232.022 227.429 232.246 227.116C231.83 226.94 231.426 226.768 231.029 226.6Z" fill="#FBFBFB"/>
<path d="M250.309 236.34C250.169 236.644 250.021 236.944 249.873 237.244C247.018 242.932 242.646 247.719 237.239 251.075C236.862 251.312 236.482 251.54 236.093 251.756C235.977 251.824 235.853 251.896 235.737 251.96C230.903 254.642 225.499 256.131 219.973 256.301C214.447 256.472 208.961 255.32 203.971 252.941C203.851 252.885 203.735 252.829 203.618 252.773C203.575 253.229 203.534 253.685 203.503 254.146C203.615 254.198 203.731 254.254 203.847 254.302C208.98 256.668 214.599 257.791 220.248 257.58C225.896 257.368 231.416 255.829 236.358 253.085C236.518 252.997 236.674 252.909 236.83 252.817C237.218 252.593 237.603 252.364 237.979 252.132C243.52 248.678 248.009 243.771 250.958 237.945C251.114 237.645 251.262 237.34 251.406 237.032C251.042 236.8 250.678 236.568 250.309 236.34Z" fill="#FBFBFB"/>
<path d="M261.547 244.71C261.479 245.015 261.411 245.319 261.334 245.619C259.275 254.07 254.108 261.435 246.863 266.247C246.49 266.5 246.106 266.74 245.722 266.976C245.309 267.224 244.897 267.472 244.472 267.705C237.952 271.314 230.444 272.733 223.056 271.754C215.668 270.774 208.789 267.448 203.434 262.264C203.342 262.18 203.254 262.092 203.166 262.004C203.166 262.601 203.162 263.189 203.17 263.782C203.25 263.858 203.334 263.934 203.418 264.006C208.994 269.057 216.01 272.238 223.484 273.103C230.958 273.968 238.515 272.474 245.097 268.83C245.521 268.597 245.938 268.357 246.342 268.101C246.734 267.869 247.115 267.629 247.495 267.38C254.844 262.519 260.149 255.126 262.403 246.608C262.479 246.32 262.555 246.031 262.623 245.739C262.275 245.387 261.911 245.055 261.547 244.71Z" fill="#FBFBFB"/>
<path d="M227.982 179.523H0V8.48235H227.982V179.523Z" fill="#FBFBFB"/>
<path d="M55.2444 44.1797C60.2563 44.1797 64.3193 40.1169 64.3193 35.1052C64.3193 30.0934 60.2563 26.0306 55.2444 26.0306C50.2325 26.0306 46.1696 30.0934 46.1696 35.1052C46.1696 40.1169 50.2325 44.1797 55.2444 44.1797Z" fill="#E6E6E6"/>
<path d="M76.203 29.0555C75.8023 29.0562 75.4183 29.2158 75.1353 29.4994C74.8522 29.783 74.6932 30.1672 74.6932 30.5679C74.6932 30.9685 74.8522 31.3528 75.1353 31.6364C75.4183 31.9199 75.8023 32.0796 76.203 32.0803H186.631C187.032 32.0796 187.416 31.9199 187.699 31.6364C187.982 31.3528 188.141 30.9685 188.141 30.5679C188.141 30.1672 187.982 29.783 187.699 29.4994C187.416 29.2158 187.032 29.0562 186.631 29.0555H76.203Z" fill="#E6E6E6"/>
<path d="M76.203 38.13C75.8019 38.1291 75.4168 38.2877 75.1326 38.5707C74.8483 38.8537 74.6882 39.2381 74.6873 39.6392C74.6865 40.0403 74.845 40.4254 75.1281 40.7096C75.4111 40.9938 75.7955 41.154 76.1966 41.1548H146.011C146.209 41.1552 146.406 41.1163 146.59 41.0405C146.774 40.9646 146.941 40.8533 147.082 40.7128C147.223 40.5723 147.334 40.4055 147.41 40.2218C147.487 40.0381 147.526 39.8413 147.526 39.6424C147.526 39.4436 147.487 39.2467 147.41 39.063C147.334 38.8793 147.223 38.7125 147.082 38.572C146.941 38.4315 146.774 38.3202 146.59 38.2443C146.406 38.1685 146.209 38.1296 146.011 38.13H76.203Z" fill="#E6E6E6"/>
<path d="M227.982 179.523H0V8.48235H227.982V179.523ZM2.55169 176.971H225.43V11.034H2.55169V176.971Z" fill="#E6E6E6"/>
<path d="M12.7426 60.6425V162.374H215.24V60.6425H12.7426ZM214.266 85.8321H164.859V61.616H214.266V85.8321ZM114.478 85.8321V61.616H163.885V85.8321H114.478ZM163.885 86.8056V111.022H114.478V86.8056H163.885ZM113.504 85.8321H64.097V61.616H113.504V85.8321ZM113.504 86.8056V111.022H64.097V86.8056H113.504ZM63.1234 111.022H13.7161V86.8056H63.1234V111.022ZM63.1234 111.995V136.211H13.7161V111.995H63.1234ZM64.097 111.995H113.504V136.211H64.097V111.995ZM113.504 137.185V161.401H64.097V137.185H113.504ZM114.478 137.185H163.885V161.401H114.478V137.185ZM114.478 136.211V111.995H163.885V136.211H114.478ZM164.859 111.995H214.266V136.211H164.859V111.995ZM164.859 111.022V86.8056H214.266V111.022H164.859ZM63.1234 61.616V85.8321H13.7161V61.616H63.1234ZM13.7161 137.185H63.1234V161.401H13.7161V137.185ZM164.859 161.401V137.185H214.266V161.401H164.859Z" fill="#E4E4E4"/>
<path d="M95.8694 88.0115L75.7206 87.5553C73.7052 79.7484 74.6125 72.3151 76.2208 65.4653L96.3695 65.9215C94.3315 73.1232 94.1594 80.725 95.8694 88.0115Z" fill="#FCD13B"/>
<path d="M79.6728 70.3473L79.6835 69.5807L90.1223 69.9536L90.1111 70.7202L79.6728 70.3473Z" fill="#FBFBFB"/>
<path d="M79.629 73.4139L79.6397 72.6472L90.0781 73.0206L90.0674 73.7872L79.629 73.4139Z" fill="#FBFBFB"/>
<path d="M79.5847 76.4804L79.5959 75.7138L90.0342 76.0871L90.0235 76.8538L79.5847 76.4804Z" fill="#FBFBFB"/>
<path d="M79.5409 79.547L79.5516 78.7804L89.9904 79.1537L89.9792 79.9203L79.5409 79.547Z" fill="#FBFBFB"/>
<path d="M79.4971 82.6136L79.5078 81.8469L89.9466 82.2203L89.9354 82.9869L79.4971 82.6136Z" fill="#FBFBFB"/>
<path d="M52.0599 144.475L31.9111 144.019C29.8957 136.212 30.8031 128.779 32.4114 121.929L52.5601 122.385C50.5221 129.587 50.35 137.188 52.0599 144.475Z" fill="#F0F0F0"/>
<path d="M35.8634 126.811L35.8741 126.044L46.3129 126.417L46.3017 127.184L35.8634 126.811Z" fill="#FBFBFB"/>
<path d="M35.8196 129.877L35.8303 129.111L46.2686 129.484L46.2579 130.251L35.8196 129.877Z" fill="#FBFBFB"/>
<path d="M35.7753 132.944L35.7865 132.177L46.2248 132.551L46.2141 133.317L35.7753 132.944Z" fill="#FBFBFB"/>
<path d="M35.7314 136.011L35.7422 135.244L46.181 135.617L46.1698 136.384L35.7314 136.011Z" fill="#FBFBFB"/>
<path d="M35.6877 139.077L35.6984 138.31L46.1372 138.684L46.126 139.45L35.6877 139.077Z" fill="#FBFBFB"/>
<path d="M157.203 118.677L137.054 118.221C135.038 110.414 135.946 102.981 137.554 96.1308L157.703 96.587C155.665 103.789 155.493 111.39 157.203 118.677Z" fill="#F0F0F0"/>
<path d="M141.006 101.013L141.017 100.246L151.456 100.619L151.444 101.386L141.006 101.013Z" fill="#FBFBFB"/>
<path d="M140.962 104.079L140.973 103.313L151.411 103.686L151.401 104.453L140.962 104.079Z" fill="#FBFBFB"/>
<path d="M140.918 107.146L140.929 106.379L151.367 106.753L151.357 107.519L140.918 107.146Z" fill="#FBFBFB"/>
<path d="M140.874 110.213L140.885 109.446L151.324 109.819L151.312 110.586L140.874 110.213Z" fill="#FBFBFB"/>
<path d="M140.83 113.279L140.841 112.512L151.28 112.886L151.269 113.652L140.83 113.279Z" fill="#FBFBFB"/>
<path d="M148.441 113.809L128.292 113.353C126.277 105.546 127.184 98.1131 128.792 91.2633L148.941 91.7195C146.903 98.9212 146.731 106.523 148.441 113.809Z" fill="#FCD13B"/>
<path d="M132.244 96.1453L132.255 95.3787L142.694 95.7515L142.682 96.5182L132.244 96.1453Z" fill="#FBFBFB"/>
<path d="M132.2 99.2119L132.211 98.4452L142.649 98.8186L142.639 99.5852L132.2 99.2119Z" fill="#FBFBFB"/>
<path d="M132.156 102.278L132.167 101.512L142.606 101.885L142.595 102.652L132.156 102.278Z" fill="#FBFBFB"/>
<path d="M132.112 105.345L132.123 104.578L142.562 104.952L142.551 105.718L132.112 105.345Z" fill="#FBFBFB"/>
<path d="M132.068 108.412L132.079 107.645L142.518 108.018L142.507 108.785L132.068 108.412Z" fill="#FBFBFB"/>
<path d="M222.754 158.274L202.605 157.818C200.59 150.011 201.497 142.578 203.106 135.728L223.254 136.184C221.216 143.386 221.044 150.988 222.754 158.274Z" fill="#FCD13B"/>
<path d="M206.558 140.61L206.569 139.843L217.007 140.217L216.996 140.983L206.558 140.61Z" fill="#FBFBFB"/>
<path d="M206.514 143.676L206.524 142.91L216.963 143.283L216.952 144.05L206.514 143.676Z" fill="#FBFBFB"/>
<path d="M206.469 146.743L206.481 145.977L216.919 146.35L216.908 147.116L206.469 146.743Z" fill="#FBFBFB"/>
<path d="M206.426 149.81L206.437 149.043L216.875 149.416L216.864 150.183L206.426 149.81Z" fill="#FBFBFB"/>
<path d="M206.382 152.877L206.393 152.11L216.831 152.483L216.82 153.25L206.382 152.877Z" fill="#FBFBFB"/>
<path d="M201.012 91.9055L180.863 91.4494C178.848 83.6425 179.755 76.2091 181.363 69.3593L201.512 69.8155C199.474 77.0172 199.302 84.619 201.012 91.9055Z" fill="#F0F0F0"/>
<path d="M184.815 74.2414L184.826 73.4747L195.265 73.8476L195.254 74.6142L184.815 74.2414Z" fill="#FBFBFB"/>
<path d="M184.772 77.3079L184.782 76.5413L195.221 76.9146L195.21 77.6813L184.772 77.3079Z" fill="#FBFBFB"/>
<path d="M184.727 80.3745L184.739 79.6078L195.177 79.9812L195.166 80.7478L184.727 80.3745Z" fill="#FBFBFB"/>
<path d="M184.684 83.441L184.694 82.6744L195.133 83.0477L195.122 83.8144L184.684 83.441Z" fill="#FBFBFB"/>
<path d="M184.64 86.5076L184.65 85.741L195.089 86.1143L195.078 86.8809L184.64 86.5076Z" fill="#FBFBFB"/>
<path d="M221.668 141.995C222.363 141.824 223.011 141.502 223.569 141.053C224.126 140.604 224.578 140.039 224.893 139.396C225.208 138.754 225.378 138.05 225.391 137.334C225.405 136.619 225.261 135.909 224.971 135.255L237.675 123.374L228.886 121.262L218.17 132.868C217.103 133.429 216.28 134.361 215.855 135.489C215.43 136.616 215.434 137.86 215.865 138.985C216.296 140.11 217.125 141.038 218.194 141.593C219.264 142.147 220.5 142.29 221.668 141.995Z" fill="#FFB6B6"/>
<path d="M228.231 132.424L222.306 124.071L244.56 101.054L249.728 64.7734C249.983 62.9801 250.63 61.265 251.623 59.7499C252.616 58.2348 253.93 56.9568 255.473 56.0067C257.015 55.0566 258.747 54.4577 260.547 54.2525C262.347 54.0473 264.17 54.2409 265.887 54.8194C268.986 55.8677 271.543 58.1028 272.996 61.034C274.45 63.9653 274.681 67.3534 273.639 70.455L260.455 109.57L228.231 132.424Z" fill="#E4E4E4"/>
<path d="M270.016 287.012L263.439 287.012L260.31 261.643L270.017 261.644L270.016 287.012Z" fill="#FFB6B6"/>
<path d="M273.554 299.5H268.887L268.054 295.094L265.921 299.5H253.543C252.949 299.5 252.372 299.31 251.894 298.959C251.416 298.607 251.063 298.112 250.886 297.546C250.71 296.979 250.719 296.371 250.912 295.81C251.106 295.249 251.473 294.765 251.962 294.428L261.846 287.601V283.147L272.243 283.768L273.554 299.5Z" fill="#3B3D3B"/>
<path d="M310.594 280.319L304.816 283.463L289.942 262.675L298.469 258.036L310.594 280.319Z" fill="#FFB6B6"/>
<path d="M319.671 289.597L315.571 291.828L312.733 288.356L312.965 293.246L302.093 299.162C301.572 299.446 300.974 299.555 300.386 299.475C299.798 299.394 299.251 299.128 298.825 298.715C298.399 298.302 298.117 297.763 298.019 297.178C297.92 296.593 298.012 295.992 298.28 295.462L303.699 284.742L301.57 280.829L310.999 276.405L319.671 289.597Z" fill="#3B3D3B"/>
<path d="M272.787 277.978H259.195V229.578L250.78 198.024C244.74 175.458 243.135 151.935 246.054 128.758L246.065 128.663L246.139 128.602C246.355 128.42 267.892 110.613 281.515 124.235C290.697 133.418 282.069 166.435 281.586 168.247V225.166L272.787 277.978Z" fill="#3B3D3B"/>
<path d="M241.914 137.55L246.295 93.7418C245.726 92.5473 237.533 84.9803 246.1 71.676L255.352 49.9582L272.68 49.6889L272.753 49.7619C276.829 53.8294 279.836 58.8423 281.505 64.3537C283.173 69.8651 283.453 75.7038 282.317 81.3493L277.211 106.878L281.635 124.574L241.914 137.55Z" fill="#E4E4E4"/>
<path d="M264.678 229.828L292.601 269.103L303.313 261.488L279.992 213.566L264.678 229.828Z" fill="#3B3D3B"/>
<path d="M262.397 45.5435C271.234 45.5435 278.397 38.3802 278.397 29.5439C278.397 20.7075 271.234 13.5443 262.397 13.5443C253.56 13.5443 246.397 20.7075 246.397 29.5439C246.397 38.3802 253.56 45.5435 262.397 45.5435Z" fill="#FFB6B6"/>
<path opacity="0.1" d="M258.464 87.4139L262.845 113.699L258.464 135.603H249.703L253.685 113.699L258.464 87.4139Z" fill="#20201F"/>
<path d="M262.644 158.171C263.177 157.693 263.598 157.104 263.878 156.446C264.158 155.787 264.291 155.075 264.266 154.36C264.241 153.645 264.06 152.944 263.735 152.306C263.41 151.669 262.949 151.11 262.385 150.67L267.999 134.207L259.25 136.481L255.261 151.767C254.584 152.763 254.296 153.974 254.453 155.168C254.609 156.363 255.198 157.459 256.108 158.248C257.018 159.038 258.186 159.466 259.391 159.452C260.595 159.438 261.753 158.982 262.644 158.171Z" fill="#FFB6B6"/>
<path d="M263.928 146.638L254.768 142.058L263.563 111.274L251.039 76.8338C250.42 75.1314 250.183 73.3136 250.346 71.5095C250.508 69.7054 251.066 67.9591 251.98 66.3948C252.893 64.8304 254.139 63.4863 255.631 62.4579C257.122 61.4295 258.821 60.7419 260.608 60.4441C263.836 59.9097 267.144 60.6777 269.807 62.5794C272.469 64.4811 274.268 67.3612 274.81 70.5879L281.596 111.303L263.928 146.638Z" fill="#E4E4E4"/>
<path d="M390 298.919C390 298.995 389.985 299.07 389.956 299.141C389.927 299.211 389.885 299.275 389.831 299.329C389.777 299.383 389.713 299.425 389.643 299.454C389.572 299.483 389.497 299.498 389.421 299.498H74.3384C74.1848 299.498 74.0374 299.437 73.9288 299.328C73.8202 299.22 73.7592 299.072 73.7592 298.919C73.7592 298.765 73.8202 298.618 73.9288 298.509C74.0374 298.4 74.1848 298.339 74.3384 298.339H389.421C389.574 298.34 389.721 298.401 389.83 298.51C389.938 298.618 390 298.765 390 298.919Z" fill="#CACACA"/>
<path d="M324.625 28.7616C322.607 32.0384 318.331 33.483 314.538 32.8269C310.746 32.1708 307.45 29.7231 305.016 26.7418C302.582 23.7604 300.898 20.2511 299.242 16.7773C297.585 13.3035 295.909 9.7915 293.487 6.8003C291.065 3.80906 287.787 1.34252 284 0.655506C281.939 0.28162 279.604 0.528461 278.101 1.98651C277.064 3.07935 276.498 4.53568 276.524 6.04181C275.869 5.81106 275.167 5.74507 274.48 5.84967C273.793 5.95426 273.142 6.22623 272.585 6.6416C272.028 7.05697 271.582 7.60298 271.286 8.23152C270.989 8.86005 270.852 9.5518 270.886 10.2458C270.83 10.2447 270.775 10.241 270.719 10.241C263.663 6.22936 252.952 8.5598 252.952 12.9406C249.08 12.9406 244.348 16.7642 244.348 22.5704C252.355 22.5704 257.067 32.8286 252.393 40.1839C251.186 42.06 249.856 43.8537 248.411 45.5532H258.423C259.263 44.3479 259.77 42.9423 259.892 41.4784C260.26 42.8084 260.48 44.1749 260.548 45.5532C260.548 45.5532 287.897 49.0771 280.838 21.8176C281.305 21.7942 281.759 21.6566 282.161 21.4166C283.227 20.7742 283.807 19.4156 283.909 18.0369C284.173 18.1075 284.436 18.1778 284.698 18.248C286.58 18.756 288.534 19.4141 289.826 20.8738C292.008 23.3407 291.549 27.0851 292.342 30.2823C293.298 34.1379 296.157 37.2565 299.334 39.6418C302.747 42.2047 306.733 44.1517 310.982 44.5559C315.231 44.9601 319.752 43.6681 322.696 40.5781C325.64 37.4881 326.665 32.5103 324.625 28.7616Z" fill="#3B3D3B"/>
</g>
<defs>
<clipPath id="clip0_8_53">
<rect width="390" height="299" fill="white" transform="translate(0 0.5)"/>
</clipPath>
</defs>
</svg>
